<svg xmlns="http://www.w3.org/2000/svg" xmlns:xlink="http://www.w3.org/1999/xlink" width="250" zoomAndPan="magnify" viewBox="0 0 187.5 74.999997" height="100" preserveAspectRatio="xMidYMid meet" version="1.0"><defs><g/><clipPath id="8866575b48"><path d="M 1.777344 14.957031 L 47.757812 14.957031 L 47.757812 60.933594 L 1.777344 60.933594 Z M 1.777344 14.957031 " clip-rule="nonzero"/></clipPath><clipPath id="072c7850e6"><path d="M 6.144531 14.957031 L 43.394531 14.957031 C 45.804688 14.957031 47.757812 16.910156 47.757812 19.320312 L 47.757812 56.570312 C 47.757812 58.980469 45.804688 60.933594 43.394531 60.933594 L 6.144531 60.933594 C 3.734375 60.933594 1.777344 58.980469 1.777344 56.570312 L 1.777344 19.320312 C 1.777344 16.910156 3.734375 14.957031 6.144531 14.957031 Z M 6.144531 14.957031 " clip-rule="nonzero"/></clipPath><clipPath id="1147a25701"><path d="M 14 19.671875 L 36 19.671875 L 36 41 L 14 41 Z M 14 19.671875 " clip-rule="nonzero"/></clipPath><clipPath id="4a22600ecf"><path d="M 13.027344 31 L 15 31 L 15 32 L 13.027344 32 Z M 13.027344 31 " clip-rule="nonzero"/></clipPath><clipPath id="54c0f06169"><path d="M 13.027344 31 L 16 31 L 16 32 L 13.027344 32 Z M 13.027344 31 " clip-rule="nonzero"/></clipPath><clipPath id="c7059c2293"><path d="M 15 30 L 36.808594 30 L 36.808594 42 L 15 42 Z M 15 30 " clip-rule="nonzero"/></clipPath><clipPath id="93e0b2f54f"><path d="M 13.027344 29 L 24 29 L 24 37 L 13.027344 37 Z M 13.027344 29 " clip-rule="nonzero"/></clipPath><clipPath id="90b2f610fd"><path d="M 24 30 L 36.808594 30 L 36.808594 36 L 24 36 Z M 24 30 " clip-rule="nonzero"/></clipPath><clipPath id="8ec145aac4"><path d="M 34 32 L 36.808594 32 L 36.808594 36 L 34 36 Z M 34 32 " clip-rule="nonzero"/></clipPath><clipPath id="34609be2c1"><path d="M 13.027344 29 L 24 29 L 24 36 L 13.027344 36 Z M 13.027344 29 " clip-rule="nonzero"/></clipPath><clipPath id="fa5e60c83b"><path d="M 13.027344 33 L 25 33 L 25 38 L 13.027344 38 Z M 13.027344 33 " clip-rule="nonzero"/></clipPath><clipPath id="923cb3d32a"><path d="M 13.027344 33 L 14 33 L 14 35 L 13.027344 35 Z M 13.027344 33 " clip-rule="nonzero"/></clipPath><clipPath id="a0673229f1"><path d="M 13.027344 33 L 16 33 L 16 36 L 13.027344 36 Z M 13.027344 33 " clip-rule="nonzero"/></clipPath></defs><g clip-path="url(#8866575b48)"><g clip-path="url(#072c7850e6)"><path fill="#6b36aa" d="M 1.777344 14.957031 L 47.757812 14.957031 L 47.757812 60.933594 L 1.777344 60.933594 Z M 1.777344 14.957031 " fill-opacity="1" fill-rule="nonzero"/></g></g><g clip-path="url(#1147a25701)"><path fill="#ffffff" d="M 24.804688 23.546875 C 21.152344 23.546875 18.179688 26.519531 18.179688 30.171875 C 18.179688 33.824219 21.152344 36.796875 24.804688 36.796875 C 28.457031 36.796875 31.429688 33.824219 31.429688 30.171875 C 31.429688 26.519531 28.457031 23.546875 24.804688 23.546875 Z M 24.804688 40.671875 C 19.015625 40.671875 14.304688 35.960938 14.304688 30.171875 C 14.304688 24.382812 19.015625 19.671875 24.804688 19.671875 C 30.59375 19.671875 35.304688 24.382812 35.304688 30.171875 C 35.304688 35.960938 30.59375 40.671875 24.804688 40.671875 " fill-opacity="1" fill-rule="nonzero"/></g><path fill="#ffffff" d="M 26.742188 56.195312 L 22.867188 56.195312 L 22.867188 38.453125 L 26.742188 38.453125 L 26.742188 56.195312 " fill-opacity="1" fill-rule="nonzero"/><path fill="#ffffff" d="M 32.113281 49.328125 L 17.496094 49.328125 L 17.496094 45.453125 L 32.113281 45.453125 L 32.113281 49.328125 " fill-opacity="1" fill-rule="nonzero"/><g clip-path="url(#4a22600ecf)"><path fill="#e61f93" d="M 14.0625 31.554688 C 14.027344 31.550781 13.996094 31.550781 13.964844 31.546875 C 13.964844 31.539062 13.960938 31.53125 13.960938 31.523438 C 13.992188 31.535156 14.027344 31.542969 14.0625 31.554688 " fill-opacity="1" fill-rule="nonzero"/></g><g clip-path="url(#54c0f06169)"><path fill="#ffffff" d="M 15.101562 31.707031 L 13.882812 31.648438 L 13.863281 31.574219 C 13.859375 31.5625 13.859375 31.554688 13.855469 31.542969 L 13.824219 31.363281 L 13.996094 31.421875 C 14.023438 31.433594 14.054688 31.441406 14.089844 31.449219 L 15.101562 31.707031 " fill-opacity="1" fill-rule="nonzero"/></g><g clip-path="url(#c7059c2293)"><path fill="#e61f93" d="M 17.289062 39.441406 C 17.722656 40.207031 18.25 41.050781 19.082031 41.355469 C 19.894531 41.65625 20.808594 41.375 21.671875 41.027344 C 22.601562 40.65625 23.59375 40.199219 24.707031 39.636719 C 25.15625 39.410156 25.605469 39.175781 26.050781 38.941406 C 26.074219 38.929688 26.097656 38.917969 26.121094 38.902344 C 26.59375 38.65625 27.058594 38.40625 27.519531 38.15625 C 28.003906 37.898438 28.488281 37.636719 28.976562 37.378906 C 29.292969 37.210938 29.710938 36.992188 30.140625 36.773438 C 30.234375 36.726562 30.324219 36.679688 30.417969 36.632812 C 30.445312 36.621094 30.46875 36.609375 30.496094 36.59375 C 30.53125 36.578125 30.5625 36.5625 30.597656 36.546875 C 30.621094 36.535156 30.644531 36.523438 30.671875 36.511719 C 30.96875 36.371094 31.257812 36.253906 31.566406 36.167969 C 31.71875 36.125 31.875 36.089844 32.035156 36.0625 C 32.277344 36.015625 32.523438 35.980469 32.761719 35.949219 C 33.042969 35.910156 33.332031 35.875 33.609375 35.816406 C 33.796875 35.777344 33.988281 35.726562 34.175781 35.664062 L 34.191406 35.660156 C 34.691406 35.5 35.164062 35.273438 35.59375 34.988281 L 35.613281 34.972656 C 35.753906 34.878906 35.929688 34.761719 35.972656 34.625 C 35.996094 34.558594 35.988281 34.496094 35.957031 34.4375 C 35.921875 34.378906 35.855469 34.335938 35.785156 34.324219 C 35.707031 34.308594 35.703125 34.308594 35.679688 34.296875 C 35.628906 34.277344 35.601562 34.226562 35.617188 34.171875 C 35.632812 34.117188 35.6875 34.085938 35.738281 34.097656 C 35.878906 34.121094 36.0625 34.054688 36.1875 33.9375 C 36.261719 33.871094 36.34375 33.753906 36.324219 33.589844 C 36.3125 33.488281 36.277344 33.414062 36.214844 33.367188 C 36.105469 33.285156 35.910156 33.269531 35.601562 33.316406 C 35.542969 33.328125 35.492188 33.289062 35.480469 33.230469 C 35.472656 33.175781 35.507812 33.121094 35.566406 33.109375 C 35.773438 33.070312 36.003906 33.015625 36.125 32.828125 C 36.167969 32.761719 36.179688 32.691406 36.160156 32.613281 C 36.132812 32.511719 36.054688 32.414062 35.953125 32.359375 C 35.847656 32.296875 35.796875 32.300781 35.648438 32.300781 L 35.535156 32.300781 C 35.480469 32.300781 35.433594 32.261719 35.429688 32.207031 C 35.421875 32.15625 35.457031 32.105469 35.511719 32.09375 L 35.515625 32.09375 L 35.53125 32.089844 L 35.535156 32.085938 C 35.753906 32.039062 35.90625 31.941406 35.914062 31.839844 C 35.933594 31.636719 35.820312 31.535156 35.722656 31.488281 C 35.632812 31.445312 35.519531 31.429688 35.402344 31.4375 C 34.960938 31.472656 34.570312 31.664062 34.160156 31.863281 C 33.753906 32.058594 33.332031 32.265625 32.851562 32.304688 C 32.746094 32.3125 32.652344 32.265625 32.59375 32.175781 C 32.535156 32.085938 32.53125 31.972656 32.582031 31.878906 C 32.75 31.574219 33.101562 31.429688 33.246094 31.382812 C 33.347656 31.347656 33.441406 31.324219 33.535156 31.296875 C 33.808594 31.226562 34.039062 31.164062 34.265625 30.9375 C 34.292969 30.910156 34.339844 30.859375 34.359375 30.832031 C 34.402344 30.777344 34.414062 30.71875 34.394531 30.667969 C 34.371094 30.609375 34.304688 30.566406 34.214844 30.550781 C 33.960938 30.503906 33.640625 30.546875 33.445312 30.59375 C 32.464844 30.84375 31.851562 31.125 31.210938 31.996094 C 31.050781 32.214844 30.910156 32.429688 30.777344 32.636719 C 30.597656 32.910156 30.414062 33.195312 30.179688 33.484375 C 30.058594 33.640625 29.914062 33.78125 29.738281 33.914062 C 29.386719 34.1875 28.980469 34.375 28.703125 34.496094 C 27.546875 35 25.996094 35.4375 24.75 35.789062 L 24.589844 35.835938 C 23.085938 36.257812 21.535156 36.699219 20.359375 37.21875 C 20.347656 37.226562 20.332031 37.226562 20.316406 37.226562 L 20.308594 37.226562 C 20.292969 37.226562 20.277344 37.222656 20.265625 37.214844 C 19.964844 37.039062 19.6875 36.875 19.414062 36.714844 C 19.320312 36.664062 19.230469 36.613281 19.140625 36.5625 C 18.671875 36.296875 18.246094 36.0625 17.78125 35.90625 C 17.410156 35.78125 17.015625 35.710938 16.628906 35.640625 C 16.347656 35.589844 16.054688 35.535156 15.773438 35.464844 C 15.699219 35.445312 15.625 35.421875 15.550781 35.402344 C 15.527344 35.394531 15.507812 35.386719 15.484375 35.378906 C 15.429688 35.363281 15.371094 35.34375 15.3125 35.324219 C 15.300781 35.320312 15.289062 35.316406 15.273438 35.3125 C 15.8125 36.640625 16.472656 37.996094 17.289062 39.441406 " fill-opacity="1" fill-rule="nonzero"/></g><g clip-path="url(#93e0b2f54f)"><path fill="#e61f93" d="M 13.945312 33.703125 C 13.941406 33.753906 14.128906 33.878906 14.785156 34.160156 C 15.4375 34.445312 16.191406 34.59375 16.855469 34.726562 C 17.28125 34.808594 17.679688 34.890625 18 34.996094 C 18.675781 35.214844 19.917969 35.953125 20.378906 36.234375 C 20.996094 35.953125 22.3125 35.542969 23.304688 35.253906 C 22.414062 34.902344 21.523438 34.535156 20.78125 34.171875 C 20.488281 34.027344 20.109375 33.824219 19.785156 33.550781 C 19.617188 33.410156 19.472656 33.257812 19.355469 33.09375 C 19.132812 32.792969 18.964844 32.503906 18.800781 32.222656 C 18.675781 32.007812 18.542969 31.785156 18.390625 31.554688 C 17.792969 30.65625 17.191406 30.34375 16.222656 30.050781 C 16.027344 29.992188 15.710938 29.9375 15.457031 29.96875 C 15.367188 29.980469 15.296875 30.023438 15.273438 30.082031 C 15.25 30.128906 15.261719 30.1875 15.300781 30.246094 C 15.320312 30.277344 15.363281 30.328125 15.382812 30.351562 C 15.605469 30.589844 15.835938 30.664062 16.101562 30.75 C 16.195312 30.78125 16.289062 30.808594 16.386719 30.847656 C 16.527344 30.902344 16.875 31.0625 17.027344 31.375 C 17.074219 31.46875 17.0625 31.582031 17 31.671875 C 16.941406 31.753906 16.839844 31.800781 16.738281 31.785156 C 16.261719 31.726562 15.847656 31.5 15.449219 31.285156 C 15.046875 31.066406 14.667969 30.859375 14.226562 30.800781 C 14.09375 30.78125 13.96875 30.800781 13.871094 30.855469 C 13.753906 30.921875 13.695312 31.03125 13.699219 31.179688 C 13.703125 31.265625 13.820312 31.363281 13.992188 31.421875 C 14.023438 31.433594 14.054688 31.441406 14.085938 31.449219 C 14.140625 31.460938 14.175781 31.511719 14.167969 31.566406 C 14.160156 31.621094 14.113281 31.660156 14.058594 31.65625 C 14.023438 31.65625 13.988281 31.65625 13.957031 31.652344 C 13.800781 31.640625 13.75 31.640625 13.636719 31.695312 C 13.53125 31.746094 13.449219 31.839844 13.417969 31.941406 C 13.398438 32.015625 13.40625 32.089844 13.445312 32.15625 C 13.558594 32.347656 13.789062 32.417969 13.992188 32.464844 C 14.046875 32.476562 14.082031 32.535156 14.070312 32.589844 C 14.058594 32.648438 14.003906 32.683594 13.945312 32.671875 C 13.636719 32.605469 13.445312 32.613281 13.332031 32.6875 C 13.269531 32.734375 13.230469 32.804688 13.210938 32.910156 C 13.183594 33.070312 13.261719 33.191406 13.332031 33.261719 C 13.453125 33.386719 13.632812 33.457031 13.773438 33.441406 L 13.789062 33.441406 C 13.835938 33.441406 13.878906 33.472656 13.890625 33.523438 C 13.902344 33.578125 13.871094 33.628906 13.816406 33.644531 C 13.800781 33.65625 13.796875 33.65625 13.71875 33.664062 C 13.644531 33.675781 13.578125 33.714844 13.539062 33.773438 C 13.507812 33.824219 13.496094 33.886719 13.515625 33.953125 L 13.945312 33.703125 C 13.945312 33.703125 13.945312 33.71875 13.945312 33.703125 " fill-opacity="1" fill-rule="nonzero"/></g><path fill="#e61f93" d="M 32.15625 36.949219 C 32.15625 36.949219 31.953125 36.972656 31.597656 37.078125 C 31.238281 37.1875 30.699219 37.460938 30.695312 37.464844 L 25.679688 40.117188 C 26.324219 40.460938 26.929688 40.761719 27.515625 41.027344 C 28.363281 41.414062 29.261719 41.738281 30.085938 41.476562 C 30.929688 41.210938 31.496094 40.394531 31.960938 39.648438 C 32.609375 38.613281 33.167969 37.632812 33.652344 36.667969 C 32.988281 36.800781 32.226562 36.9375 32.179688 36.945312 C 32.171875 36.945312 32.164062 36.945312 32.15625 36.949219 " fill-opacity="1" fill-rule="nonzero"/><path fill="#e61f93" d="M 30.671875 36.511719 C 30.964844 36.375 31.257812 36.253906 31.566406 36.167969 C 31.71875 36.125 31.875 36.089844 32.035156 36.0625 C 31.875 36.089844 31.71875 36.125 31.566406 36.167969 C 31.257812 36.253906 30.96875 36.371094 30.671875 36.511719 " fill-opacity="1" fill-rule="nonzero"/><g clip-path="url(#90b2f610fd)"><path fill="#e61f93" d="M 24.75 35.789062 C 25.996094 35.4375 27.546875 35 28.703125 34.496094 C 28.980469 34.375 29.386719 34.1875 29.738281 33.914062 C 29.914062 33.78125 30.058594 33.640625 30.179688 33.484375 C 30.414062 33.195312 30.597656 32.910156 30.777344 32.636719 C 30.910156 32.429688 31.050781 32.214844 31.210938 31.996094 C 31.851562 31.125 32.464844 30.84375 33.445312 30.59375 C 33.640625 30.546875 33.960938 30.503906 34.214844 30.550781 C 34.304688 30.566406 34.371094 30.609375 34.394531 30.667969 C 34.414062 30.71875 34.402344 30.777344 34.359375 30.832031 C 34.339844 30.859375 34.292969 30.910156 34.265625 30.9375 C 34.039062 31.164062 33.808594 31.226562 33.535156 31.296875 C 33.441406 31.324219 33.347656 31.347656 33.246094 31.382812 C 33.101562 31.429688 32.75 31.574219 32.582031 31.878906 C 32.53125 31.972656 32.535156 32.085938 32.59375 32.175781 C 32.652344 32.265625 32.746094 32.3125 32.851562 32.304688 C 33.332031 32.265625 33.753906 32.058594 34.160156 31.863281 C 34.570312 31.664062 34.960938 31.472656 35.402344 31.4375 C 35.519531 31.429688 35.632812 31.445312 35.722656 31.488281 C 35.820312 31.535156 35.933594 31.636719 35.914062 31.839844 C 35.90625 31.941406 35.753906 32.039062 35.535156 32.085938 L 35.53125 32.089844 L 35.539062 32.085938 L 35.703125 32.046875 L 35.675781 32.160156 C 35.882812 32.089844 36.007812 31.980469 36.019531 31.847656 C 36.039062 31.625 35.929688 31.472656 35.769531 31.394531 C 35.660156 31.34375 35.53125 31.320312 35.394531 31.332031 C 34.46875 31.40625 33.765625 32.125 32.84375 32.199219 C 32.703125 32.210938 32.605469 32.054688 32.675781 31.929688 C 32.792969 31.714844 33.039062 31.5625 33.28125 31.484375 C 33.675781 31.351562 34.015625 31.339844 34.34375 31.011719 C 34.371094 30.980469 34.417969 30.925781 34.441406 30.898438 C 34.585938 30.710938 34.488281 30.492188 34.230469 30.445312 C 33.980469 30.402344 33.652344 30.433594 33.421875 30.492188 C 32.390625 30.753906 31.765625 31.066406 31.125 31.933594 C 30.746094 32.453125 30.503906 32.917969 30.097656 33.417969 C 29.972656 33.574219 29.828125 33.710938 29.671875 33.832031 C 29.371094 34.066406 29.015625 34.246094 28.664062 34.398438 C 27.582031 34.867188 26.214844 35.265625 24.824219 35.660156 C 24.824219 35.671875 24.828125 35.679688 24.828125 35.691406 C 24.824219 35.738281 24.792969 35.777344 24.75 35.789062 " fill-opacity="1" fill-rule="nonzero"/></g><path fill="#e61f93" d="M 20.265625 37.214844 C 19.964844 37.039062 19.6875 36.875 19.414062 36.714844 C 19.6875 36.875 19.964844 37.039062 20.265625 37.214844 " fill-opacity="1" fill-rule="nonzero"/><path fill="#e61f93" d="M 24.707031 39.636719 C 25.15625 39.414062 25.605469 39.175781 26.050781 38.941406 C 25.605469 39.175781 25.15625 39.410156 24.707031 39.636719 C 23.59375 40.199219 22.601562 40.65625 21.671875 41.027344 C 20.808594 41.375 19.894531 41.65625 19.082031 41.355469 C 18.25 41.050781 17.722656 40.207031 17.289062 39.441406 C 16.472656 37.996094 15.8125 36.640625 15.273438 35.3125 C 15.289062 35.316406 15.300781 35.320312 15.3125 35.324219 C 15.253906 35.304688 15.199219 35.28125 15.140625 35.261719 C 15.726562 36.71875 16.425781 38.128906 17.199219 39.492188 C 17.652344 40.296875 18.191406 41.140625 19.042969 41.453125 C 19.90625 41.773438 20.859375 41.46875 21.710938 41.125 C 22.707031 40.726562 23.679688 40.273438 24.636719 39.789062 L 24.527344 39.726562 L 24.707031 39.636719 " fill-opacity="1" fill-rule="nonzero"/><path fill="#e61f93" d="M 30.597656 36.546875 C 30.5625 36.5625 30.53125 36.578125 30.496094 36.59375 C 30.53125 36.578125 30.5625 36.5625 30.597656 36.546875 " fill-opacity="1" fill-rule="nonzero"/><g clip-path="url(#8ec145aac4)"><path fill="#e61f93" d="M 35.5625 32.300781 L 35.535156 32.300781 L 35.523438 32.1875 L 35.457031 32.171875 L 35.523438 32.183594 L 35.515625 32.09375 L 35.511719 32.09375 C 35.457031 32.105469 35.421875 32.15625 35.429688 32.207031 C 35.433594 32.261719 35.480469 32.300781 35.535156 32.300781 L 35.648438 32.300781 C 35.796875 32.300781 35.847656 32.296875 35.953125 32.359375 C 36.054688 32.414062 36.132812 32.511719 36.160156 32.613281 C 36.179688 32.691406 36.167969 32.761719 36.125 32.828125 C 36.003906 33.015625 35.773438 33.070312 35.566406 33.109375 C 35.507812 33.121094 35.472656 33.175781 35.480469 33.230469 C 35.492188 33.289062 35.542969 33.328125 35.601562 33.316406 C 35.910156 33.269531 36.105469 33.285156 36.214844 33.367188 C 36.277344 33.414062 36.3125 33.488281 36.324219 33.589844 C 36.34375 33.753906 36.261719 33.871094 36.1875 33.9375 C 36.0625 34.054688 35.878906 34.121094 35.738281 34.097656 C 35.6875 34.085938 35.632812 34.117188 35.617188 34.171875 C 35.601562 34.226562 35.628906 34.277344 35.679688 34.296875 C 35.703125 34.308594 35.707031 34.308594 35.785156 34.324219 C 35.855469 34.335938 35.921875 34.378906 35.957031 34.4375 C 35.988281 34.496094 35.996094 34.558594 35.972656 34.625 C 35.929688 34.761719 35.753906 34.878906 35.613281 34.972656 L 35.59375 34.988281 C 35.164062 35.273438 34.691406 35.5 34.191406 35.660156 L 34.40625 35.59375 L 34.347656 35.71875 C 34.804688 35.558594 35.246094 35.34375 35.652344 35.074219 C 35.816406 34.96875 36.019531 34.839844 36.074219 34.660156 C 36.148438 34.433594 35.988281 34.25 35.804688 34.21875 C 35.714844 34.203125 35.746094 34.207031 35.722656 34.199219 C 36.019531 34.253906 36.476562 33.984375 36.429688 33.578125 C 36.382812 33.171875 36.027344 33.144531 35.585938 33.214844 C 35.800781 33.171875 36.066406 33.113281 36.214844 32.882812 C 36.359375 32.664062 36.226562 32.386719 36.003906 32.265625 C 35.878906 32.195312 35.804688 32.195312 35.667969 32.195312 L 35.640625 32.300781 L 35.5625 32.300781 " fill-opacity="1" fill-rule="nonzero"/></g><path fill="#e61f93" d="M 28.976562 37.378906 C 28.488281 37.636719 28.003906 37.898438 27.519531 38.15625 C 27.058594 38.40625 26.59375 38.65625 26.121094 38.902344 C 26.597656 38.652344 27.070312 38.398438 27.53125 38.148438 C 28.011719 37.890625 28.492188 37.632812 28.972656 37.378906 C 29.402344 37.152344 29.78125 36.957031 30.140625 36.773438 C 30.230469 36.726562 30.324219 36.679688 30.417969 36.632812 C 30.324219 36.679688 30.234375 36.726562 30.140625 36.773438 C 29.710938 36.992188 29.292969 37.210938 28.976562 37.378906 " fill-opacity="1" fill-rule="nonzero"/><path fill="#e61f93" d="M 15.484375 35.378906 C 15.507812 35.386719 15.527344 35.394531 15.550781 35.402344 C 15.527344 35.394531 15.507812 35.386719 15.484375 35.378906 " fill-opacity="1" fill-rule="nonzero"/><path fill="#e61f93" d="M 20.359375 37.21875 C 20.347656 37.226562 20.328125 37.226562 20.3125 37.226562 L 20.316406 37.226562 C 20.332031 37.226562 20.347656 37.226562 20.359375 37.21875 " fill-opacity="1" fill-rule="nonzero"/><path fill="#e61f93" d="M 20.265625 37.214844 C 20.277344 37.222656 20.292969 37.226562 20.308594 37.226562 C 20.292969 37.226562 20.277344 37.222656 20.265625 37.214844 " fill-opacity="1" fill-rule="nonzero"/><path fill="#e61f93" d="M 15.3125 35.324219 C 15.371094 35.34375 15.429688 35.363281 15.484375 35.378906 C 15.429688 35.363281 15.371094 35.34375 15.3125 35.324219 " fill-opacity="1" fill-rule="nonzero"/><path fill="#e61f93" d="M 15.550781 35.402344 C 15.625 35.421875 15.699219 35.445312 15.773438 35.464844 C 15.699219 35.445312 15.625 35.421875 15.550781 35.402344 " fill-opacity="1" fill-rule="nonzero"/><path fill="#e61f93" d="M 20.316406 37.121094 C 19.945312 36.902344 19.570312 36.683594 19.195312 36.46875 C 18.75 36.21875 18.300781 35.96875 17.816406 35.804688 C 17.164062 35.585938 16.464844 35.535156 15.796875 35.359375 C 15.558594 35.296875 15.320312 35.21875 15.089844 35.128906 C 15.105469 35.171875 15.125 35.214844 15.140625 35.261719 C 15.199219 35.28125 15.253906 35.304688 15.3125 35.324219 C 15.371094 35.34375 15.429688 35.363281 15.484375 35.378906 C 15.507812 35.386719 15.527344 35.394531 15.550781 35.402344 C 15.625 35.421875 15.699219 35.445312 15.773438 35.464844 C 16.054688 35.535156 16.347656 35.589844 16.628906 35.640625 C 17.015625 35.710938 17.410156 35.78125 17.78125 35.90625 C 18.246094 36.0625 18.671875 36.296875 19.140625 36.5625 C 19.230469 36.613281 19.320312 36.664062 19.414062 36.714844 C 19.6875 36.875 19.964844 37.039062 20.265625 37.214844 C 20.277344 37.222656 20.292969 37.226562 20.308594 37.226562 L 20.3125 37.226562 C 20.328125 37.226562 20.347656 37.226562 20.359375 37.21875 C 21.535156 36.699219 23.085938 36.257812 24.589844 35.835938 L 24.75 35.789062 C 24.792969 35.777344 24.824219 35.738281 24.828125 35.691406 C 24.828125 35.679688 24.824219 35.671875 24.824219 35.660156 C 24.789062 35.667969 24.753906 35.679688 24.722656 35.6875 C 23.140625 36.136719 21.542969 36.578125 20.316406 37.121094 " fill-opacity="1" fill-rule="nonzero"/><g clip-path="url(#34609be2c1)"><path fill="#e61f93" d="M 20.828125 34.078125 C 20.484375 33.90625 20.144531 33.714844 19.855469 33.46875 C 19.699219 33.339844 19.558594 33.195312 19.4375 33.03125 C 19.058594 32.507812 18.835938 32.035156 18.476562 31.496094 C 17.878906 30.601562 17.269531 30.257812 16.253906 29.953125 C 16.023438 29.882812 15.699219 29.832031 15.445312 29.867188 C 15.1875 29.898438 15.078125 30.113281 15.214844 30.304688 C 15.234375 30.335938 15.28125 30.394531 15.308594 30.425781 C 15.621094 30.765625 15.960938 30.796875 16.347656 30.945312 C 16.585938 31.035156 16.828125 31.203125 16.933594 31.421875 C 16.996094 31.550781 16.890625 31.699219 16.75 31.683594 C 15.835938 31.566406 15.164062 30.816406 14.242188 30.695312 C 14.089844 30.675781 13.9375 30.699219 13.820312 30.761719 C 13.679688 30.839844 13.585938 30.980469 13.59375 31.183594 C 13.601562 31.320312 13.734375 31.445312 13.960938 31.523438 C 13.992188 31.535156 14.027344 31.542969 14.0625 31.550781 C 14.027344 31.550781 13.996094 31.550781 13.964844 31.546875 C 13.804688 31.535156 13.730469 31.53125 13.589844 31.601562 C 13.363281 31.710938 13.21875 31.980469 13.355469 32.207031 C 13.492188 32.441406 13.75 32.515625 13.96875 32.566406 C 13.53125 32.476562 13.175781 32.488281 13.109375 32.890625 C 13.039062 33.296875 13.484375 33.585938 13.789062 33.546875 C 13.761719 33.554688 13.796875 33.546875 13.703125 33.5625 C 13.65625 33.566406 13.613281 33.582031 13.570312 33.605469 C 13.660156 33.613281 13.75 33.625 13.839844 33.636719 C 13.878906 33.613281 13.902344 33.570312 13.890625 33.523438 C 13.878906 33.472656 13.835938 33.441406 13.789062 33.441406 L 13.773438 33.441406 C 13.632812 33.457031 13.453125 33.386719 13.332031 33.261719 C 13.261719 33.191406 13.183594 33.070312 13.210938 32.910156 C 13.230469 32.804688 13.269531 32.734375 13.332031 32.6875 C 13.445312 32.613281 13.636719 32.605469 13.945312 32.671875 C 14.003906 32.683594 14.058594 32.648438 14.070312 32.589844 C 14.082031 32.535156 14.046875 32.476562 13.992188 32.464844 C 13.789062 32.417969 13.558594 32.347656 13.445312 32.15625 C 13.40625 32.089844 13.398438 32.015625 13.417969 31.941406 C 13.449219 31.839844 13.53125 31.746094 13.636719 31.695312 C 13.75 31.640625 13.800781 31.640625 13.957031 31.652344 C 13.988281 31.65625 14.023438 31.65625 14.058594 31.65625 C 14.113281 31.660156 14.160156 31.621094 14.167969 31.566406 C 14.175781 31.511719 14.140625 31.460938 14.085938 31.449219 C 14.054688 31.441406 14.023438 31.433594 13.992188 31.421875 C 13.820312 31.363281 13.703125 31.265625 13.699219 31.179688 C 13.695312 31.03125 13.753906 30.921875 13.871094 30.855469 C 13.96875 30.800781 14.09375 30.78125 14.226562 30.800781 C 14.667969 30.859375 15.046875 31.066406 15.449219 31.285156 C 15.847656 31.5 16.261719 31.726562 16.738281 31.785156 C 16.839844 31.800781 16.941406 31.753906 17 31.671875 C 17.0625 31.582031 17.074219 31.46875 17.027344 31.375 C 16.875 31.0625 16.527344 30.902344 16.386719 30.847656 C 16.289062 30.808594 16.195312 30.78125 16.101562 30.75 C 15.835938 30.664062 15.605469 30.589844 15.382812 30.351562 C 15.363281 30.328125 15.320312 30.277344 15.300781 30.246094 C 15.261719 30.1875 15.25 30.128906 15.273438 30.082031 C 15.296875 30.023438 15.367188 29.980469 15.457031 29.96875 C 15.710938 29.9375 16.027344 29.992188 16.222656 30.050781 C 17.191406 30.34375 17.792969 30.65625 18.390625 31.554688 C 18.542969 31.785156 18.675781 32.007812 18.800781 32.222656 C 18.964844 32.503906 19.132812 32.792969 19.355469 33.09375 C 19.472656 33.257812 19.617188 33.410156 19.785156 33.550781 C 20.109375 33.824219 20.488281 34.027344 20.78125 34.171875 C 21.523438 34.535156 22.414062 34.902344 23.304688 35.253906 C 23.359375 35.238281 23.417969 35.222656 23.472656 35.207031 C 22.507812 34.828125 21.59375 34.453125 20.828125 34.078125 " fill-opacity="1" fill-rule="nonzero"/></g><path fill="#e61f93" d="M 30.671875 36.511719 C 30.644531 36.523438 30.621094 36.535156 30.597656 36.546875 C 30.621094 36.535156 30.644531 36.523438 30.671875 36.511719 " fill-opacity="1" fill-rule="nonzero"/><path fill="#e61f93" d="M 26.121094 38.902344 C 26.097656 38.917969 26.074219 38.929688 26.050781 38.941406 C 26.074219 38.929688 26.097656 38.917969 26.121094 38.902344 " fill-opacity="1" fill-rule="nonzero"/><path fill="#e61f93" d="M 33.609375 35.816406 C 33.332031 35.875 33.042969 35.910156 32.761719 35.949219 C 32.523438 35.980469 32.277344 36.015625 32.035156 36.0625 C 32.277344 36.015625 32.523438 35.980469 32.761719 35.949219 C 33.042969 35.914062 33.328125 35.875 33.609375 35.816406 C 33.804688 35.773438 33.996094 35.726562 34.175781 35.667969 L 34.191406 35.660156 L 34.175781 35.664062 C 33.988281 35.726562 33.796875 35.777344 33.609375 35.816406 " fill-opacity="1" fill-rule="nonzero"/><path fill="#e61f93" d="M 30.496094 36.59375 C 30.46875 36.609375 30.445312 36.621094 30.417969 36.632812 C 30.445312 36.621094 30.46875 36.609375 30.496094 36.59375 " fill-opacity="1" fill-rule="nonzero"/><path fill="#e61f93" d="M 32.023438 36.167969 C 31.878906 36.195312 31.734375 36.226562 31.59375 36.269531 C 31.375 36.332031 31.160156 36.410156 30.949219 36.503906 C 31.160156 36.410156 31.375 36.332031 31.59375 36.269531 C 31.734375 36.230469 31.878906 36.195312 32.023438 36.167969 " fill-opacity="1" fill-rule="nonzero"/><path fill="#e61f93" d="M 34.191406 35.660156 L 34.175781 35.667969 C 33.996094 35.726562 33.804688 35.773438 33.609375 35.816406 C 33.328125 35.875 33.042969 35.914062 32.761719 35.949219 C 32.523438 35.980469 32.277344 36.015625 32.035156 36.0625 C 31.875 36.089844 31.71875 36.125 31.566406 36.167969 C 31.257812 36.253906 30.964844 36.375 30.671875 36.511719 C 30.644531 36.523438 30.621094 36.535156 30.597656 36.546875 C 30.5625 36.5625 30.53125 36.578125 30.496094 36.59375 C 30.46875 36.609375 30.445312 36.621094 30.417969 36.632812 C 30.324219 36.679688 30.230469 36.726562 30.140625 36.773438 C 29.78125 36.957031 29.402344 37.152344 28.972656 37.378906 C 28.492188 37.632812 28.011719 37.890625 27.53125 38.148438 C 27.070312 38.398438 26.597656 38.652344 26.121094 38.902344 C 26.097656 38.917969 26.074219 38.929688 26.050781 38.941406 C 25.605469 39.175781 25.15625 39.414062 24.707031 39.636719 L 24.527344 39.726562 L 24.636719 39.789062 C 24.675781 39.769531 24.714844 39.75 24.753906 39.730469 C 26.191406 39.007812 27.597656 38.226562 29.023438 37.472656 C 29.410156 37.269531 29.796875 37.066406 30.1875 36.867188 C 30.269531 36.824219 30.351562 36.785156 30.429688 36.746094 C 30.601562 36.660156 30.773438 36.578125 30.949219 36.503906 C 31.160156 36.410156 31.375 36.332031 31.59375 36.269531 C 31.734375 36.226562 31.878906 36.195312 32.023438 36.167969 C 32.503906 36.078125 32.992188 36.035156 33.472656 35.949219 C 33.546875 35.933594 33.621094 35.917969 33.691406 35.90625 C 33.867188 35.867188 34.039062 35.820312 34.207031 35.765625 C 34.253906 35.75 34.300781 35.734375 34.347656 35.71875 L 34.40625 35.59375 L 34.191406 35.660156 " fill-opacity="1" fill-rule="nonzero"/><path fill="#e61f93" d="M 31.960938 39.648438 C 31.496094 40.394531 30.929688 41.210938 30.085938 41.476562 C 29.261719 41.738281 28.363281 41.414062 27.515625 41.027344 C 26.929688 40.761719 26.324219 40.460938 25.679688 40.117188 L 25.566406 40.175781 C 26.191406 40.507812 26.824219 40.828125 27.46875 41.125 C 28.304688 41.503906 29.242188 41.855469 30.117188 41.578125 C 30.984375 41.300781 31.5625 40.484375 32.050781 39.703125 C 32.671875 38.710938 33.257812 37.691406 33.785156 36.640625 C 33.742188 36.648438 33.699219 36.65625 33.652344 36.667969 C 33.167969 37.632812 32.609375 38.613281 31.960938 39.648438 " fill-opacity="1" fill-rule="nonzero"/><path fill="#e61f93" d="M 34.195312 35.792969 C 34.199219 35.785156 34.203125 35.777344 34.207031 35.765625 C 34.042969 35.820312 33.875 35.863281 33.707031 35.902344 C 33.894531 35.863281 34.066406 35.824219 34.195312 35.792969 " fill-opacity="1" fill-rule="nonzero"/><path fill="#e61f93" d="M 33.472656 35.949219 C 32.992188 36.035156 32.503906 36.078125 32.023438 36.167969 C 32.492188 36.078125 32.96875 36.039062 33.441406 35.957031 C 33.453125 35.953125 33.460938 35.949219 33.472656 35.949219 " fill-opacity="1" fill-rule="nonzero"/><path fill="#e61f93" d="M 30.429688 36.746094 C 30.601562 36.660156 30.773438 36.578125 30.949219 36.503906 C 30.773438 36.578125 30.601562 36.660156 30.429688 36.746094 " fill-opacity="1" fill-rule="nonzero"/><path fill="#e61f93" d="M 34.207031 35.765625 C 34.039062 35.820312 33.867188 35.867188 33.691406 35.90625 L 33.707031 35.902344 C 33.875 35.863281 34.042969 35.820312 34.207031 35.765625 " fill-opacity="1" fill-rule="nonzero"/><path fill="#e61f93" d="M 35.515625 32.09375 L 35.53125 32.089844 Z M 35.515625 32.09375 " fill-opacity="1" fill-rule="nonzero"/><path fill="#e61f93" d="M 35.558594 32.191406 L 35.5625 32.191406 L 35.5625 32.195312 L 35.535156 32.195312 L 35.5625 32.195312 C 35.601562 32.195312 35.636719 32.195312 35.667969 32.195312 L 35.675781 32.160156 C 35.640625 32.171875 35.601562 32.179688 35.5625 32.191406 L 35.558594 32.191406 " fill-opacity="1" fill-rule="nonzero"/><path fill="#e61f93" d="M 35.539062 32.085938 L 35.53125 32.089844 L 35.515625 32.09375 L 35.523438 32.183594 L 35.457031 32.171875 L 35.523438 32.1875 L 35.535156 32.300781 L 35.640625 32.300781 L 35.667969 32.195312 C 35.636719 32.195312 35.601562 32.195312 35.5625 32.195312 L 35.535156 32.195312 C 35.542969 32.195312 35.550781 32.191406 35.558594 32.191406 L 35.5625 32.191406 C 35.601562 32.179688 35.640625 32.171875 35.675781 32.160156 L 35.703125 32.046875 L 35.539062 32.085938 " fill-opacity="1" fill-rule="nonzero"/><path fill="#e61f93" d="M 35.5625 32.191406 L 35.558594 32.191406 C 35.550781 32.191406 35.542969 32.195312 35.535156 32.195312 L 35.5625 32.195312 L 35.5625 32.191406 " fill-opacity="1" fill-rule="nonzero"/><path fill="#e61f93" d="M 35.535156 32.195312 C 35.542969 32.195312 35.550781 32.191406 35.558594 32.191406 C 35.550781 32.191406 35.542969 32.195312 35.535156 32.195312 " fill-opacity="1" fill-rule="nonzero"/><path fill="#e61f93" d="M 30.53125 36.8125 C 30.546875 36.804688 30.566406 36.796875 30.582031 36.789062 C 30.566406 36.796875 30.546875 36.804688 30.53125 36.8125 " fill-opacity="1" fill-rule="nonzero"/><path fill="#e61f93" d="M 33.910156 35.960938 C 33.933594 35.957031 33.957031 35.949219 33.980469 35.941406 C 33.957031 35.949219 33.933594 35.957031 33.910156 35.960938 " fill-opacity="1" fill-rule="nonzero"/><path fill="#e61f93" d="M 33.652344 36.023438 C 33.664062 36.019531 33.675781 36.015625 33.6875 36.015625 C 33.675781 36.015625 33.664062 36.019531 33.652344 36.023438 C 33.367188 36.082031 33.074219 36.121094 32.792969 36.160156 C 32.554688 36.191406 32.316406 36.222656 32.082031 36.265625 C 32.316406 36.222656 32.554688 36.191406 32.789062 36.160156 C 33.074219 36.121094 33.367188 36.082031 33.652344 36.023438 " fill-opacity="1" fill-rule="nonzero"/><path fill="#e61f93" d="M 30.722656 36.71875 C 30.734375 36.714844 30.742188 36.710938 30.753906 36.707031 C 30.742188 36.710938 30.734375 36.714844 30.722656 36.71875 " fill-opacity="1" fill-rule="nonzero"/><path fill="#e61f93" d="M 26.011719 39.199219 C 26.101562 39.15625 26.1875 39.109375 26.273438 39.0625 C 26.1875 39.109375 26.101562 39.15625 26.011719 39.199219 " fill-opacity="1" fill-rule="nonzero"/><path fill="#e61f93" d="M 26.839844 38.761719 C 26.871094 38.746094 26.902344 38.726562 26.9375 38.710938 C 26.902344 38.726562 26.871094 38.746094 26.839844 38.761719 " fill-opacity="1" fill-rule="nonzero"/><path fill="#e61f93" d="M 29.375 37.40625 L 29.394531 37.398438 C 29.386719 37.398438 29.382812 37.402344 29.375 37.40625 " fill-opacity="1" fill-rule="nonzero"/><path fill="#e61f93" d="M 25.320312 39.5625 C 25.40625 39.515625 25.492188 39.472656 25.582031 39.425781 C 25.492188 39.472656 25.40625 39.515625 25.320312 39.5625 " fill-opacity="1" fill-rule="nonzero"/><path fill="#e61f93" d="M 33.691406 35.90625 C 33.621094 35.917969 33.546875 35.933594 33.472656 35.949219 C 33.527344 35.9375 33.578125 35.929688 33.628906 35.917969 C 33.652344 35.914062 33.671875 35.910156 33.691406 35.90625 " fill-opacity="1" fill-rule="nonzero"/><path fill="#e61f93" d="M 30.582031 36.789062 C 30.628906 36.765625 30.675781 36.742188 30.722656 36.71875 C 30.675781 36.742188 30.628906 36.765625 30.582031 36.789062 " fill-opacity="1" fill-rule="nonzero"/><path fill="#e61f93" d="M 32.082031 36.265625 C 31.925781 36.296875 31.773438 36.328125 31.621094 36.371094 C 31.328125 36.453125 31.042969 36.570312 30.753906 36.707031 C 31.039062 36.570312 31.328125 36.453125 31.625 36.371094 C 31.773438 36.328125 31.925781 36.296875 32.082031 36.265625 " fill-opacity="1" fill-rule="nonzero"/><path fill="#e61f93" d="M 29.074219 37.566406 C 29.175781 37.511719 29.277344 37.457031 29.375 37.40625 C 29.265625 37.464844 29.164062 37.515625 29.074219 37.566406 C 28.585938 37.824219 28.101562 38.082031 27.617188 38.34375 C 27.394531 38.464844 27.164062 38.585938 26.9375 38.710938 C 27.171875 38.585938 27.402344 38.460938 27.632812 38.335938 C 28.113281 38.078125 28.59375 37.820312 29.074219 37.566406 " fill-opacity="1" fill-rule="nonzero"/><path fill="#e61f93" d="M 26.273438 39.0625 C 26.460938 38.964844 26.648438 38.863281 26.839844 38.761719 C 26.648438 38.863281 26.460938 38.964844 26.273438 39.0625 " fill-opacity="1" fill-rule="nonzero"/><path fill="#e61f93" d="M 30.53125 36.8125 C 30.433594 36.863281 30.335938 36.910156 30.234375 36.960938 C 29.941406 37.113281 29.652344 37.261719 29.394531 37.398438 C 29.695312 37.238281 29.972656 37.097656 30.234375 36.960938 C 30.332031 36.910156 30.433594 36.863281 30.53125 36.8125 " fill-opacity="1" fill-rule="nonzero"/><path fill="#e61f93" d="M 25.582031 39.425781 C 25.726562 39.351562 25.871094 39.277344 26.011719 39.199219 C 25.871094 39.277344 25.726562 39.351562 25.582031 39.425781 " fill-opacity="1" fill-rule="nonzero"/><path fill="#e61f93" d="M 33.6875 36.015625 C 33.761719 36 33.835938 35.980469 33.910156 35.960938 C 33.835938 35.980469 33.761719 36 33.6875 36.015625 " fill-opacity="1" fill-rule="nonzero"/><path fill="#e61f93" d="M 33.628906 35.917969 C 33.65625 35.914062 33.679688 35.90625 33.707031 35.902344 L 33.691406 35.90625 C 33.671875 35.910156 33.652344 35.914062 33.628906 35.917969 C 33.578125 35.929688 33.527344 35.9375 33.472656 35.949219 C 33.460938 35.949219 33.453125 35.953125 33.441406 35.957031 C 33.503906 35.945312 33.566406 35.933594 33.628906 35.917969 " fill-opacity="1" fill-rule="nonzero"/><path fill="#e61f93" d="M 23.484375 35.929688 C 23.445312 35.941406 23.40625 35.953125 23.371094 35.964844 C 23.40625 35.953125 23.445312 35.941406 23.484375 35.929688 " fill-opacity="1" fill-rule="nonzero"/><path fill="#e61f93" d="M 21.113281 36.6875 C 21.082031 36.699219 21.046875 36.714844 21.015625 36.726562 C 21.046875 36.714844 21.082031 36.699219 21.113281 36.6875 " fill-opacity="1" fill-rule="nonzero"/><path fill="#e61f93" d="M 20.867188 36.78125 C 20.839844 36.792969 20.808594 36.804688 20.777344 36.816406 C 20.808594 36.804688 20.839844 36.792969 20.867188 36.78125 " fill-opacity="1" fill-rule="nonzero"/><path fill="#e61f93" d="M 21.875 36.421875 C 21.835938 36.4375 21.796875 36.449219 21.761719 36.460938 C 21.796875 36.449219 21.835938 36.4375 21.875 36.421875 " fill-opacity="1" fill-rule="nonzero"/><path fill="#e61f93" d="M 21.363281 36.597656 C 21.328125 36.609375 21.292969 36.625 21.257812 36.636719 C 21.292969 36.625 21.328125 36.609375 21.363281 36.597656 " fill-opacity="1" fill-rule="nonzero"/><path fill="#e61f93" d="M 23.753906 35.851562 C 23.71875 35.863281 23.6875 35.871094 23.652344 35.882812 C 23.6875 35.871094 23.71875 35.863281 23.753906 35.851562 " fill-opacity="1" fill-rule="nonzero"/><path fill="#e61f93" d="M 23.210938 36.007812 C 23.171875 36.019531 23.132812 36.03125 23.09375 36.042969 C 23.132812 36.03125 23.171875 36.019531 23.210938 36.007812 " fill-opacity="1" fill-rule="nonzero"/><path fill="#e61f93" d="M 21.617188 36.507812 C 21.582031 36.523438 21.542969 36.535156 21.503906 36.546875 C 21.542969 36.535156 21.582031 36.523438 21.617188 36.507812 " fill-opacity="1" fill-rule="nonzero"/><path fill="#e61f93" d="M 22.9375 36.089844 C 22.898438 36.101562 22.859375 36.113281 22.820312 36.125 C 22.859375 36.113281 22.898438 36.101562 22.9375 36.089844 " fill-opacity="1" fill-rule="nonzero"/><path fill="#e61f93" d="M 24.035156 35.773438 C 24 35.78125 23.964844 35.792969 23.929688 35.800781 C 23.964844 35.792969 24 35.78125 24.035156 35.773438 " fill-opacity="1" fill-rule="nonzero"/><path fill="#e61f93" d="M 20.621094 36.878906 C 20.597656 36.890625 20.570312 36.898438 20.546875 36.910156 C 20.570312 36.898438 20.597656 36.890625 20.621094 36.878906 " fill-opacity="1" fill-rule="nonzero"/><path fill="#e61f93" d="M 22.667969 36.171875 C 22.628906 36.183594 22.589844 36.195312 22.550781 36.207031 C 22.589844 36.195312 22.628906 36.183594 22.667969 36.171875 " fill-opacity="1" fill-rule="nonzero"/><path fill="#e61f93" d="M 24.296875 35.699219 C 24.273438 35.707031 24.25 35.710938 24.222656 35.71875 C 24.246094 35.710938 24.273438 35.707031 24.296875 35.699219 " fill-opacity="1" fill-rule="nonzero"/><path fill="#e61f93" d="M 22.136719 36.339844 C 22.097656 36.351562 22.058594 36.363281 22.019531 36.375 C 22.058594 36.363281 22.097656 36.351562 22.136719 36.339844 " fill-opacity="1" fill-rule="nonzero"/><path fill="#e61f93" d="M 22.402344 36.253906 C 22.359375 36.265625 22.320312 36.277344 22.28125 36.292969 C 22.320312 36.277344 22.359375 36.265625 22.402344 36.253906 " fill-opacity="1" fill-rule="nonzero"/><path fill="#e61f93" d="M 15.824219 35.257812 C 15.59375 35.199219 15.359375 35.121094 15.128906 35.03125 C 15.355469 35.121094 15.59375 35.199219 15.824219 35.257812 " fill-opacity="1" fill-rule="nonzero"/><path fill="#e61f93" d="M 22.820312 36.125 C 22.769531 36.140625 22.71875 36.15625 22.667969 36.171875 C 22.71875 36.15625 22.769531 36.140625 22.820312 36.125 " fill-opacity="1" fill-rule="nonzero"/><path fill="#e61f93" d="M 24.222656 35.71875 C 24.160156 35.738281 24.097656 35.753906 24.035156 35.773438 C 24.097656 35.753906 24.160156 35.738281 24.222656 35.71875 " fill-opacity="1" fill-rule="nonzero"/><path fill="#e61f93" d="M 23.929688 35.800781 C 23.871094 35.820312 23.8125 35.835938 23.753906 35.851562 C 23.8125 35.835938 23.871094 35.820312 23.929688 35.800781 " fill-opacity="1" fill-rule="nonzero"/><path fill="#e61f93" d="M 23.09375 36.042969 C 23.042969 36.058594 22.988281 36.074219 22.9375 36.089844 C 22.988281 36.074219 23.042969 36.058594 23.09375 36.042969 " fill-opacity="1" fill-rule="nonzero"/><path fill="#e61f93" d="M 23.371094 35.964844 C 23.316406 35.980469 23.265625 35.996094 23.210938 36.007812 C 23.265625 35.996094 23.316406 35.980469 23.371094 35.964844 " fill-opacity="1" fill-rule="nonzero"/><path fill="#e61f93" d="M 23.652344 35.882812 C 23.59375 35.898438 23.539062 35.914062 23.484375 35.929688 C 23.539062 35.914062 23.59375 35.898438 23.652344 35.882812 " fill-opacity="1" fill-rule="nonzero"/><path fill="#e61f93" d="M 21.015625 36.726562 C 20.964844 36.742188 20.917969 36.761719 20.867188 36.78125 C 20.917969 36.761719 20.964844 36.742188 21.015625 36.726562 " fill-opacity="1" fill-rule="nonzero"/><path fill="#e61f93" d="M 20.777344 36.816406 C 20.722656 36.835938 20.671875 36.859375 20.621094 36.878906 C 20.671875 36.859375 20.722656 36.835938 20.777344 36.816406 " fill-opacity="1" fill-rule="nonzero"/><path fill="#e61f93" d="M 20.546875 36.910156 C 20.472656 36.941406 20.398438 36.972656 20.324219 37.003906 C 20.398438 36.972656 20.472656 36.941406 20.546875 36.910156 " fill-opacity="1" fill-rule="nonzero"/><path fill="#e61f93" d="M 22.28125 36.292969 C 22.234375 36.308594 22.183594 36.324219 22.136719 36.339844 C 22.183594 36.324219 22.234375 36.308594 22.28125 36.292969 " fill-opacity="1" fill-rule="nonzero"/><path fill="#e61f93" d="M 21.257812 36.636719 C 21.210938 36.652344 21.160156 36.671875 21.113281 36.6875 C 21.160156 36.671875 21.210938 36.652344 21.257812 36.636719 " fill-opacity="1" fill-rule="nonzero"/><path fill="#e61f93" d="M 22.019531 36.375 C 21.972656 36.390625 21.925781 36.40625 21.875 36.421875 C 21.925781 36.40625 21.972656 36.390625 22.019531 36.375 " fill-opacity="1" fill-rule="nonzero"/><path fill="#e61f93" d="M 21.761719 36.460938 C 21.710938 36.476562 21.664062 36.492188 21.617188 36.507812 C 21.664062 36.492188 21.710938 36.476562 21.761719 36.460938 " fill-opacity="1" fill-rule="nonzero"/><path fill="#e61f93" d="M 22.550781 36.207031 C 22.5 36.222656 22.449219 36.238281 22.402344 36.253906 C 22.449219 36.238281 22.5 36.222656 22.550781 36.207031 " fill-opacity="1" fill-rule="nonzero"/><path fill="#e61f93" d="M 21.503906 36.546875 C 21.457031 36.5625 21.410156 36.582031 21.363281 36.597656 C 21.410156 36.582031 21.457031 36.5625 21.503906 36.546875 " fill-opacity="1" fill-rule="nonzero"/><path fill="#ffffff" d="M 25.679688 40.117188 L 30.695312 37.464844 C 30.699219 37.460938 31.238281 37.1875 31.597656 37.078125 C 31.953125 36.972656 32.15625 36.949219 32.15625 36.949219 C 32.164062 36.945312 32.171875 36.945312 32.179688 36.945312 C 32.226562 36.9375 32.988281 36.800781 33.652344 36.667969 C 33.777344 36.421875 33.898438 36.179688 34.011719 35.933594 C 34.003906 35.9375 33.992188 35.941406 33.980469 35.941406 C 33.957031 35.949219 33.933594 35.957031 33.910156 35.960938 C 33.835938 35.980469 33.761719 36 33.6875 36.015625 C 33.675781 36.015625 33.664062 36.019531 33.652344 36.023438 C 33.367188 36.082031 33.074219 36.121094 32.789062 36.160156 C 32.554688 36.191406 32.316406 36.222656 32.082031 36.265625 C 31.925781 36.296875 31.773438 36.328125 31.625 36.371094 C 31.328125 36.453125 31.039062 36.570312 30.753906 36.707031 C 30.742188 36.710938 30.734375 36.714844 30.722656 36.71875 C 30.675781 36.742188 30.628906 36.765625 30.582031 36.789062 C 30.566406 36.796875 30.546875 36.804688 30.53125 36.8125 C 30.433594 36.863281 30.332031 36.910156 30.234375 36.960938 C 29.972656 37.097656 29.695312 37.238281 29.394531 37.398438 L 29.375 37.40625 C 29.277344 37.457031 29.175781 37.511719 29.074219 37.566406 C 28.59375 37.820312 28.113281 38.078125 27.632812 38.335938 C 27.402344 38.460938 27.171875 38.585938 26.9375 38.710938 C 26.902344 38.726562 26.871094 38.746094 26.839844 38.761719 C 26.648438 38.863281 26.460938 38.964844 26.273438 39.0625 C 26.1875 39.109375 26.101562 39.15625 26.011719 39.199219 C 25.871094 39.277344 25.726562 39.351562 25.582031 39.425781 C 25.492188 39.472656 25.40625 39.515625 25.320312 39.5625 C 25.207031 39.621094 25.09375 39.679688 24.976562 39.738281 C 25.21875 39.871094 25.449219 39.996094 25.679688 40.117188 " fill-opacity="1" fill-rule="nonzero"/><g clip-path="url(#fa5e60c83b)"><path fill="#ffffff" d="M 16.667969 35.433594 C 17.058594 35.503906 17.464844 35.578125 17.847656 35.707031 C 18.332031 35.867188 18.765625 36.105469 19.246094 36.378906 C 19.589844 36.574219 19.945312 36.78125 20.324219 37.003906 C 20.398438 36.972656 20.472656 36.941406 20.546875 36.910156 C 20.570312 36.898438 20.597656 36.890625 20.621094 36.878906 C 20.671875 36.859375 20.722656 36.835938 20.777344 36.816406 C 20.808594 36.804688 20.839844 36.792969 20.867188 36.78125 C 20.917969 36.761719 20.964844 36.742188 21.015625 36.726562 C 21.046875 36.714844 21.082031 36.699219 21.113281 36.6875 C 21.160156 36.671875 21.210938 36.652344 21.257812 36.636719 C 21.292969 36.625 21.328125 36.609375 21.363281 36.597656 C 21.410156 36.582031 21.457031 36.5625 21.503906 36.546875 C 21.542969 36.535156 21.582031 36.523438 21.617188 36.507812 C 21.664062 36.492188 21.710938 36.476562 21.761719 36.460938 C 21.796875 36.449219 21.835938 36.4375 21.875 36.421875 C 21.925781 36.40625 21.972656 36.390625 22.019531 36.375 C 22.058594 36.363281 22.097656 36.351562 22.136719 36.339844 C 22.183594 36.324219 22.234375 36.308594 22.28125 36.292969 C 22.320312 36.277344 22.359375 36.265625 22.402344 36.253906 C 22.449219 36.238281 22.5 36.222656 22.550781 36.207031 C 22.589844 36.195312 22.628906 36.183594 22.667969 36.171875 C 22.71875 36.15625 22.769531 36.140625 22.820312 36.125 C 22.859375 36.113281 22.898438 36.101562 22.9375 36.089844 C 22.988281 36.074219 23.042969 36.058594 23.09375 36.042969 C 23.132812 36.03125 23.171875 36.019531 23.210938 36.007812 C 23.265625 35.996094 23.316406 35.980469 23.371094 35.964844 C 23.40625 35.953125 23.445312 35.941406 23.484375 35.929688 C 23.539062 35.914062 23.59375 35.898438 23.652344 35.882812 C 23.6875 35.871094 23.71875 35.863281 23.753906 35.851562 C 23.8125 35.835938 23.871094 35.820312 23.929688 35.800781 C 23.964844 35.792969 24 35.78125 24.035156 35.773438 C 24.097656 35.753906 24.160156 35.738281 24.222656 35.71875 C 24.25 35.710938 24.273438 35.707031 24.296875 35.699219 C 24.328125 35.691406 24.355469 35.683594 24.386719 35.671875 C 24.03125 35.539062 23.667969 35.398438 23.304688 35.253906 C 22.3125 35.542969 20.996094 35.953125 20.378906 36.234375 C 19.917969 35.953125 18.675781 35.214844 18 34.996094 C 17.679688 34.890625 17.28125 34.808594 16.855469 34.726562 C 16.191406 34.59375 15.4375 34.445312 14.785156 34.160156 C 14.347656 33.972656 14.125 33.8125 14.027344 33.726562 C 13.972656 33.683594 13.917969 33.640625 13.863281 33.601562 C 13.839844 33.589844 13.824219 33.578125 13.824219 33.578125 L 13.476562 33.746094 L 13.515625 33.960938 C 13.550781 34.097656 13.722656 34.222656 13.859375 34.324219 L 13.878906 34.335938 C 14.257812 34.617188 14.679688 34.847656 15.128906 35.03125 C 15.359375 35.121094 15.59375 35.199219 15.824219 35.257812 C 16.101562 35.332031 16.390625 35.382812 16.667969 35.433594 " fill-opacity="1" fill-rule="nonzero"/></g><path fill="#ffffff" d="M 34.195312 35.792969 C 34.179688 35.828125 34.164062 35.859375 34.148438 35.894531 C 34.09375 35.910156 34.039062 35.929688 33.980469 35.945312 C 33.957031 35.949219 33.933594 35.957031 33.910156 35.960938 C 33.835938 35.980469 33.761719 36 33.6875 36.015625 C 33.675781 36.015625 33.664062 36.019531 33.652344 36.023438 C 33.367188 36.082031 33.074219 36.121094 32.792969 36.15625 C 32.554688 36.191406 32.316406 36.222656 32.082031 36.265625 C 31.925781 36.296875 31.773438 36.328125 31.621094 36.371094 C 31.328125 36.453125 31.042969 36.570312 30.753906 36.707031 C 30.742188 36.710938 30.734375 36.714844 30.722656 36.71875 C 30.679688 36.742188 30.632812 36.765625 30.582031 36.789062 C 30.566406 36.796875 30.546875 36.804688 30.53125 36.8125 C 30.433594 36.863281 30.335938 36.910156 30.238281 36.960938 C 29.941406 37.113281 29.652344 37.261719 29.394531 37.398438 C 29.386719 37.398438 29.382812 37.402344 29.375 37.40625 C 29.269531 37.464844 29.164062 37.515625 29.074219 37.566406 C 28.585938 37.824219 28.101562 38.082031 27.617188 38.34375 C 27.394531 38.464844 27.164062 38.585938 26.9375 38.710938 C 26.902344 38.726562 26.871094 38.746094 26.839844 38.761719 C 26.652344 38.863281 26.460938 38.964844 26.269531 39.066406 C 26.1875 39.109375 26.097656 39.15625 26.015625 39.199219 C 25.867188 39.277344 25.726562 39.351562 25.582031 39.425781 C 25.492188 39.472656 25.40625 39.515625 25.320312 39.5625 C 25.167969 39.640625 25.015625 39.71875 24.863281 39.792969 C 24.839844 39.78125 24.8125 39.765625 24.789062 39.753906 L 24.753906 39.734375 C 26.1875 39.007812 27.601562 38.226562 29.023438 37.472656 C 29.410156 37.269531 29.796875 37.066406 30.1875 36.867188 C 30.269531 36.828125 30.347656 36.785156 30.429688 36.746094 C 30.601562 36.660156 30.773438 36.578125 30.949219 36.503906 C 31.160156 36.410156 31.375 36.332031 31.59375 36.269531 C 31.734375 36.230469 31.878906 36.195312 32.023438 36.167969 C 32.492188 36.078125 32.96875 36.039062 33.441406 35.957031 C 33.503906 35.945312 33.566406 35.933594 33.628906 35.917969 C 33.65625 35.914062 33.679688 35.90625 33.707031 35.902344 C 33.894531 35.863281 34.066406 35.824219 34.195312 35.792969 " fill-opacity="1" fill-rule="nonzero"/><path fill="#ffffff" d="M 24.976562 39.738281 C 25.09375 39.679688 25.207031 39.621094 25.320312 39.5625 C 25.167969 39.640625 25.015625 39.71875 24.863281 39.792969 C 25.097656 39.921875 25.332031 40.050781 25.566406 40.175781 L 25.679688 40.117188 C 25.449219 39.996094 25.21875 39.871094 24.976562 39.738281 " fill-opacity="1" fill-rule="nonzero"/><path fill="#ffffff" d="M 34.011719 35.933594 C 33.898438 36.179688 33.777344 36.421875 33.652344 36.667969 C 33.699219 36.65625 33.742188 36.648438 33.785156 36.640625 C 33.910156 36.394531 34.03125 36.144531 34.148438 35.894531 C 34.09375 35.910156 34.039062 35.929688 33.980469 35.941406 C 33.992188 35.941406 34.003906 35.9375 34.011719 35.933594 " fill-opacity="1" fill-rule="nonzero"/><path fill="#ffffff" d="M 24.386719 35.671875 C 24.355469 35.683594 24.328125 35.691406 24.296875 35.699219 C 24.375 35.675781 24.453125 35.65625 24.53125 35.632812 L 24.554688 35.625 C 24.191406 35.484375 23.828125 35.34375 23.472656 35.207031 C 23.417969 35.222656 23.359375 35.238281 23.304688 35.253906 C 23.667969 35.398438 24.03125 35.539062 24.386719 35.671875 " fill-opacity="1" fill-rule="nonzero"/><g clip-path="url(#923cb3d32a)"><path fill="#ffffff" d="M 13.414062 33.988281 C 13.414062 33.996094 13.417969 34.003906 13.421875 34.011719 L 13.515625 33.953125 C 13.496094 33.886719 13.507812 33.824219 13.539062 33.773438 C 13.578125 33.714844 13.644531 33.675781 13.71875 33.664062 C 13.796875 33.65625 13.800781 33.65625 13.816406 33.644531 C 13.824219 33.644531 13.855469 33.628906 13.871094 33.609375 C 13.804688 33.601562 13.800781 33.558594 13.722656 33.558594 C 13.699219 33.558594 13.632812 33.570312 13.570312 33.605469 C 13.449219 33.675781 13.367188 33.816406 13.414062 33.988281 " fill-opacity="1" fill-rule="nonzero"/></g><path fill="#ffffff" d="M 15.027344 35.042969 C 14.847656 34.984375 14.667969 34.917969 14.492188 34.839844 C 14.464844 34.828125 14.445312 34.820312 14.417969 34.808594 C 14.605469 34.910156 14.796875 35.003906 14.992188 35.085938 C 14.996094 35.074219 15.003906 35.0625 15.011719 35.050781 L 15.027344 35.042969 " fill-opacity="1" fill-rule="nonzero"/><path fill="#ffffff" d="M 17.816406 35.804688 C 18.300781 35.96875 18.75 36.21875 19.195312 36.46875 C 19.570312 36.683594 19.945312 36.902344 20.316406 37.121094 C 21.542969 36.578125 23.140625 36.136719 24.722656 35.6875 C 24.6875 35.675781 24.652344 35.660156 24.617188 35.648438 C 23.199219 36.042969 21.015625 36.695312 20.554688 36.976562 C 20.496094 37.011719 20.429688 37.027344 20.363281 37.027344 C 20.296875 37.027344 20.226562 37.007812 20.167969 36.972656 C 20.152344 36.960938 18.507812 35.9375 17.773438 35.699219 C 17.492188 35.605469 17.113281 35.53125 16.710938 35.453125 C 16.179688 35.347656 15.597656 35.230469 15.027344 35.042969 L 15.011719 35.050781 C 15.003906 35.0625 14.996094 35.074219 14.992188 35.085938 C 15.023438 35.097656 15.054688 35.113281 15.089844 35.128906 C 15.320312 35.21875 15.558594 35.296875 15.796875 35.359375 C 16.464844 35.535156 17.164062 35.585938 17.816406 35.804688 " fill-opacity="1" fill-rule="nonzero"/><g clip-path="url(#a0673229f1)"><path fill="#ffffff" d="M 15.027344 35.042969 C 15.054688 35.023438 15.09375 35.015625 15.128906 35.03125 C 14.679688 34.847656 14.257812 34.617188 13.878906 34.335938 L 13.859375 34.324219 C 13.722656 34.222656 13.550781 34.097656 13.515625 33.960938 L 13.515625 33.953125 L 13.421875 34.011719 C 13.480469 34.179688 13.664062 34.3125 13.816406 34.421875 C 14.007812 34.5625 14.210938 34.691406 14.417969 34.808594 C 14.445312 34.820312 14.464844 34.828125 14.492188 34.839844 C 14.667969 34.917969 14.847656 34.984375 15.027344 35.042969 " fill-opacity="1" fill-rule="nonzero"/></g><path fill="#ffffff" d="M 24.296875 35.699219 C 24.273438 35.707031 24.246094 35.710938 24.222656 35.71875 C 24.160156 35.738281 24.097656 35.753906 24.035156 35.773438 C 24 35.78125 23.964844 35.792969 23.929688 35.800781 C 23.871094 35.820312 23.8125 35.835938 23.753906 35.851562 C 23.71875 35.863281 23.6875 35.871094 23.652344 35.882812 C 23.59375 35.898438 23.539062 35.914062 23.484375 35.929688 C 23.445312 35.941406 23.40625 35.953125 23.371094 35.964844 C 23.316406 35.980469 23.265625 35.996094 23.210938 36.007812 C 23.171875 36.019531 23.132812 36.03125 23.09375 36.042969 C 23.042969 36.058594 22.988281 36.074219 22.9375 36.089844 C 22.898438 36.101562 22.859375 36.113281 22.820312 36.125 C 22.769531 36.140625 22.71875 36.15625 22.667969 36.171875 C 22.628906 36.183594 22.589844 36.195312 22.550781 36.207031 C 22.5 36.222656 22.449219 36.238281 22.402344 36.253906 C 22.359375 36.265625 22.320312 36.277344 22.28125 36.292969 C 22.234375 36.308594 22.183594 36.324219 22.136719 36.339844 C 22.097656 36.351562 22.058594 36.363281 22.019531 36.375 C 21.972656 36.390625 21.925781 36.40625 21.875 36.421875 C 21.835938 36.4375 21.796875 36.449219 21.761719 36.460938 C 21.710938 36.476562 21.664062 36.492188 21.617188 36.507812 C 21.582031 36.523438 21.542969 36.535156 21.503906 36.546875 C 21.457031 36.5625 21.410156 36.582031 21.363281 36.597656 C 21.328125 36.609375 21.292969 36.625 21.257812 36.636719 C 21.210938 36.652344 21.160156 36.671875 21.113281 36.6875 C 21.082031 36.699219 21.046875 36.714844 21.015625 36.726562 C 20.964844 36.742188 20.917969 36.761719 20.867188 36.78125 C 20.839844 36.792969 20.808594 36.804688 20.777344 36.816406 C 20.722656 36.835938 20.671875 36.859375 20.621094 36.878906 C 20.597656 36.890625 20.570312 36.898438 20.546875 36.910156 C 20.472656 36.941406 20.398438 36.972656 20.324219 37.003906 C 19.945312 36.78125 19.589844 36.574219 19.246094 36.378906 C 18.765625 36.105469 18.332031 35.867188 17.847656 35.707031 C 17.464844 35.578125 17.058594 35.503906 16.667969 35.433594 C 16.390625 35.382812 16.101562 35.332031 15.824219 35.257812 C 15.59375 35.199219 15.355469 35.121094 15.128906 35.03125 C 15.09375 35.015625 15.054688 35.023438 15.027344 35.042969 C 15.597656 35.230469 16.179688 35.347656 16.710938 35.453125 C 17.113281 35.53125 17.492188 35.605469 17.773438 35.699219 C 18.507812 35.9375 20.152344 36.960938 20.167969 36.972656 C 20.226562 37.007812 20.296875 37.027344 20.363281 37.027344 C 20.429688 37.027344 20.496094 37.011719 20.554688 36.976562 C 21.015625 36.695312 23.199219 36.042969 24.617188 35.648438 C 24.597656 35.640625 24.578125 35.632812 24.554688 35.625 L 24.53125 35.632812 C 24.453125 35.65625 24.375 35.675781 24.296875 35.699219 " fill-opacity="1" fill-rule="nonzero"/><g fill="#6a35aa" fill-opacity="1"><g transform="translate(56.538254, 37.685538)"><g><path d="M 12.453125 -18.625 C 13.609375 -18.625 14.632812 -18.359375 15.53125 -17.828125 C 16.4375 -17.296875 17.140625 -16.566406 17.640625 -15.640625 C 18.148438 -14.710938 18.40625 -13.671875 18.40625 -12.515625 L 18.40625 -12.15625 C 18.40625 -11 18.148438 -9.953125 17.640625 -9.015625 C 17.140625 -8.078125 16.4375 -7.34375 15.53125 -6.8125 C 14.632812 -6.28125 13.609375 -6.015625 12.453125 -6.015625 L 7.984375 -6.015625 L 7.984375 0 L 2 0 L 2 -18.625 Z M 7.984375 -10.375 L 10.453125 -10.375 C 11.085938 -10.375 11.5625 -10.535156 11.875 -10.859375 C 12.1875 -11.179688 12.34375 -11.625 12.34375 -12.1875 L 12.34375 -12.40625 C 12.34375 -12.976562 12.1875 -13.421875 11.875 -13.734375 C 11.5625 -14.054688 11.085938 -14.21875 10.453125 -14.21875 L 7.984375 -14.21875 Z M 7.984375 -10.375 "/></g></g></g><g fill="#6a35aa" fill-opacity="1"><g transform="translate(76.074757, 37.685538)"><g><path d="M 19.6875 -12.921875 C 19.6875 -11.773438 19.378906 -10.742188 18.765625 -9.828125 C 18.148438 -8.910156 17.253906 -8.234375 16.078125 -7.796875 L 20.234375 0 L 13.515625 0 L 10.203125 -6.796875 L 7.984375 -6.796875 L 7.984375 0 L 2 0 L 2 -18.625 L 13.40625 -18.625 C 14.738281 -18.625 15.878906 -18.367188 16.828125 -17.859375 C 17.773438 -17.347656 18.488281 -16.648438 18.96875 -15.765625 C 19.445312 -14.890625 19.6875 -13.941406 19.6875 -12.921875 Z M 13.59375 -12.671875 C 13.59375 -13.160156 13.429688 -13.566406 13.109375 -13.890625 C 12.785156 -14.210938 12.390625 -14.375 11.921875 -14.375 L 7.984375 -14.375 L 7.984375 -10.9375 L 11.921875 -10.9375 C 12.390625 -10.9375 12.785156 -11.101562 13.109375 -11.4375 C 13.429688 -11.769531 13.59375 -12.179688 13.59375 -12.671875 Z M 13.59375 -12.671875 "/></g></g></g><g fill="#6a35aa" fill-opacity="1"><g transform="translate(97.126563, 37.685538)"><g><path d="M 2 -18.625 L 18.109375 -18.625 L 18.109375 -14.15625 L 7.984375 -14.15625 L 7.984375 -11.59375 L 16.65625 -11.59375 L 16.65625 -7.3125 L 7.984375 -7.3125 L 7.984375 -4.46875 L 18.3125 -4.46875 L 18.3125 0 L 2 0 Z M 2 -18.625 "/></g></g></g><g fill="#6a35aa" fill-opacity="1"><g transform="translate(116.663066, 37.685538)"><g><path d="M 2 -18.625 L 17.0625 -18.625 L 17.0625 -14.15625 L 7.984375 -14.15625 L 7.984375 -10.96875 L 15.78125 -10.96875 L 15.78125 -6.6875 L 7.984375 -6.6875 L 7.984375 0 L 2 0 Z M 2 -18.625 "/></g></g></g><g fill="#6a35aa" fill-opacity="1"><g transform="translate(134.711327, 37.685538)"><g><path d="M 2 -18.625 L 18.109375 -18.625 L 18.109375 -14.15625 L 7.984375 -14.15625 L 7.984375 -11.59375 L 16.65625 -11.59375 L 16.65625 -7.3125 L 7.984375 -7.3125 L 7.984375 -4.46875 L 18.3125 -4.46875 L 18.3125 0 L 2 0 Z M 2 -18.625 "/></g></g></g><g fill="#6a35aa" fill-opacity="1"><g transform="translate(154.24783, 37.685538)"><g><path d="M 18 0 L 18 -6.71875 C 18 -7.550781 18.03125 -8.40625 18.09375 -9.28125 C 18.164062 -10.15625 18.234375 -10.890625 18.296875 -11.484375 C 18.367188 -12.078125 18.414062 -12.457031 18.4375 -12.625 L 18.328125 -12.625 L 14.890625 0 L 10.203125 0 L 6.75 -12.59375 L 6.640625 -12.59375 C 6.648438 -12.425781 6.695312 -12.050781 6.78125 -11.46875 C 6.863281 -10.882812 6.941406 -10.15625 7.015625 -9.28125 C 7.085938 -8.40625 7.125 -7.550781 7.125 -6.71875 L 7.125 0 L 1.625 0 L 1.625 -18.625 L 10.078125 -18.625 L 12.890625 -7.875 L 13 -7.875 L 15.78125 -18.625 L 23.9375 -18.625 L 23.9375 0 Z M 18 0 "/></g></g></g><g fill="#000000" fill-opacity="1"><g transform="translate(56.538254, 54.732269)"><g><path d="M 6.671875 -2.265625 L 1.96875 -2.265625 L 0.953125 0 L 0.03125 0 L 3.890625 -8.453125 L 4.765625 -8.453125 L 8.640625 0 L 7.6875 0 Z M 6.359375 -2.984375 L 4.328125 -7.53125 L 2.296875 -2.984375 Z M 6.359375 -2.984375 "/></g></g></g><g fill="#000000" fill-opacity="1"><g transform="translate(65.195341, 54.732269)"><g><path d="M 4.4375 -6.40625 C 5.226562 -6.40625 5.859375 -6.171875 6.328125 -5.703125 C 6.804688 -5.242188 7.046875 -4.570312 7.046875 -3.6875 L 7.046875 0 L 6.1875 0 L 6.1875 -3.59375 C 6.1875 -4.257812 6.019531 -4.765625 5.6875 -5.109375 C 5.351562 -5.453125 4.882812 -5.625 4.28125 -5.625 C 3.59375 -5.625 3.046875 -5.421875 2.640625 -5.015625 C 2.242188 -4.609375 2.046875 -4.046875 2.046875 -3.328125 L 2.046875 0 L 1.203125 0 L 1.203125 -6.359375 L 2.015625 -6.359375 L 2.015625 -5.1875 C 2.253906 -5.570312 2.578125 -5.867188 2.984375 -6.078125 C 3.398438 -6.296875 3.882812 -6.40625 4.4375 -6.40625 Z M 4.4375 -6.40625 "/></g></g></g><g fill="#000000" fill-opacity="1"><g transform="translate(73.369458, 54.732269)"><g><path d="M 4.546875 -0.390625 C 4.378906 -0.242188 4.175781 -0.128906 3.9375 -0.046875 C 3.707031 0.0234375 3.460938 0.0625 3.203125 0.0625 C 2.609375 0.0625 2.148438 -0.0976562 1.828125 -0.421875 C 1.503906 -0.742188 1.34375 -1.195312 1.34375 -1.78125 L 1.34375 -5.625 L 0.203125 -5.625 L 0.203125 -6.359375 L 1.34375 -6.359375 L 1.34375 -7.734375 L 2.203125 -7.734375 L 2.203125 -6.359375 L 4.125 -6.359375 L 4.125 -5.625 L 2.203125 -5.625 L 2.203125 -1.828125 C 2.203125 -1.453125 2.296875 -1.164062 2.484375 -0.96875 C 2.671875 -0.769531 2.941406 -0.671875 3.296875 -0.671875 C 3.472656 -0.671875 3.644531 -0.695312 3.8125 -0.75 C 3.976562 -0.8125 4.117188 -0.894531 4.234375 -1 Z M 4.546875 -0.390625 "/></g></g></g><g fill="#000000" fill-opacity="1"><g transform="translate(78.271522, 54.732269)"><g><path d="M 1.203125 -6.359375 L 2.046875 -6.359375 L 2.046875 0 L 1.203125 0 Z M 1.625 -7.734375 C 1.445312 -7.734375 1.296875 -7.796875 1.171875 -7.921875 C 1.054688 -8.046875 1 -8.191406 1 -8.359375 C 1 -8.515625 1.054688 -8.65625 1.171875 -8.78125 C 1.296875 -8.90625 1.445312 -8.96875 1.625 -8.96875 C 1.800781 -8.96875 1.945312 -8.90625 2.0625 -8.78125 C 2.1875 -8.664062 2.25 -8.53125 2.25 -8.375 C 2.25 -8.195312 2.1875 -8.046875 2.0625 -7.921875 C 1.945312 -7.796875 1.800781 -7.734375 1.625 -7.734375 Z M 1.625 -7.734375 "/></g></g></g><g fill="#000000" fill-opacity="1"><g transform="translate(81.519442, 54.732269)"><g><path d="M 0.71875 -3.640625 L 3.890625 -3.640625 L 3.890625 -2.90625 L 0.71875 -2.90625 Z M 0.71875 -3.640625 "/></g></g></g><g fill="#000000" fill-opacity="1"><g transform="translate(86.131721, 54.732269)"><g><path d="M 3.296875 -8.296875 C 2.921875 -8.296875 2.640625 -8.191406 2.453125 -7.984375 C 2.265625 -7.785156 2.171875 -7.492188 2.171875 -7.109375 L 2.171875 -6.359375 L 4.125 -6.359375 L 4.125 -5.625 L 2.203125 -5.625 L 2.203125 0 L 1.34375 0 L 1.34375 -5.625 L 0.203125 -5.625 L 0.203125 -6.359375 L 1.34375 -6.359375 L 1.34375 -7.140625 C 1.34375 -7.710938 1.507812 -8.164062 1.84375 -8.5 C 2.175781 -8.84375 2.648438 -9.015625 3.265625 -9.015625 C 3.503906 -9.015625 3.734375 -8.976562 3.953125 -8.90625 C 4.179688 -8.84375 4.375 -8.75 4.53125 -8.625 L 4.234375 -7.984375 C 3.984375 -8.191406 3.671875 -8.296875 3.296875 -8.296875 Z M 3.296875 -8.296875 "/></g></g></g><g fill="#000000" fill-opacity="1"><g transform="translate(90.224813, 54.732269)"><g><path d="M 6.734375 -2.90625 L 1.40625 -2.90625 C 1.457031 -2.25 1.710938 -1.71875 2.171875 -1.3125 C 2.628906 -0.90625 3.207031 -0.703125 3.90625 -0.703125 C 4.300781 -0.703125 4.664062 -0.769531 5 -0.90625 C 5.332031 -1.050781 5.617188 -1.257812 5.859375 -1.53125 L 6.34375 -0.984375 C 6.0625 -0.640625 5.707031 -0.378906 5.28125 -0.203125 C 4.863281 -0.0234375 4.398438 0.0625 3.890625 0.0625 C 3.234375 0.0625 2.65625 -0.0703125 2.15625 -0.34375 C 1.65625 -0.625 1.265625 -1.007812 0.984375 -1.5 C 0.703125 -2 0.5625 -2.554688 0.5625 -3.171875 C 0.5625 -3.796875 0.691406 -4.351562 0.953125 -4.84375 C 1.222656 -5.332031 1.59375 -5.710938 2.0625 -5.984375 C 2.539062 -6.265625 3.070312 -6.40625 3.65625 -6.40625 C 4.25 -6.40625 4.773438 -6.265625 5.234375 -5.984375 C 5.703125 -5.710938 6.066406 -5.332031 6.328125 -4.84375 C 6.597656 -4.363281 6.734375 -3.804688 6.734375 -3.171875 Z M 3.65625 -5.671875 C 3.039062 -5.671875 2.523438 -5.472656 2.109375 -5.078125 C 1.703125 -4.691406 1.46875 -4.179688 1.40625 -3.546875 L 5.921875 -3.546875 C 5.859375 -4.179688 5.617188 -4.691406 5.203125 -5.078125 C 4.796875 -5.472656 4.28125 -5.671875 3.65625 -5.671875 Z M 3.65625 -5.671875 "/></g></g></g><g fill="#000000" fill-opacity="1"><g transform="translate(97.517526, 54.732269)"><g><path d="M 9.125 -6.40625 C 9.914062 -6.40625 10.535156 -6.175781 10.984375 -5.71875 C 11.441406 -5.257812 11.671875 -4.582031 11.671875 -3.6875 L 11.671875 0 L 10.828125 0 L 10.828125 -3.59375 C 10.828125 -4.257812 10.664062 -4.765625 10.34375 -5.109375 C 10.03125 -5.453125 9.582031 -5.625 9 -5.625 C 8.332031 -5.625 7.8125 -5.421875 7.4375 -5.015625 C 7.0625 -4.609375 6.875 -4.046875 6.875 -3.328125 L 6.875 0 L 6.015625 0 L 6.015625 -3.59375 C 6.015625 -4.257812 5.851562 -4.765625 5.53125 -5.109375 C 5.21875 -5.453125 4.765625 -5.625 4.171875 -5.625 C 3.523438 -5.625 3.007812 -5.421875 2.625 -5.015625 C 2.238281 -4.609375 2.046875 -4.046875 2.046875 -3.328125 L 2.046875 0 L 1.203125 0 L 1.203125 -6.359375 L 2.015625 -6.359375 L 2.015625 -5.1875 C 2.242188 -5.570312 2.554688 -5.867188 2.953125 -6.078125 C 3.359375 -6.296875 3.820312 -6.40625 4.34375 -6.40625 C 4.875 -6.40625 5.332031 -6.289062 5.71875 -6.0625 C 6.113281 -5.832031 6.410156 -5.5 6.609375 -5.0625 C 6.835938 -5.476562 7.171875 -5.804688 7.609375 -6.046875 C 8.054688 -6.285156 8.5625 -6.40625 9.125 -6.40625 Z M 9.125 -6.40625 "/></g></g></g><g fill="#000000" fill-opacity="1"><g transform="translate(110.328072, 54.732269)"><g><path d="M 1.203125 -6.359375 L 2.046875 -6.359375 L 2.046875 0 L 1.203125 0 Z M 1.625 -7.734375 C 1.445312 -7.734375 1.296875 -7.796875 1.171875 -7.921875 C 1.054688 -8.046875 1 -8.191406 1 -8.359375 C 1 -8.515625 1.054688 -8.65625 1.171875 -8.78125 C 1.296875 -8.90625 1.445312 -8.96875 1.625 -8.96875 C 1.800781 -8.96875 1.945312 -8.90625 2.0625 -8.78125 C 2.1875 -8.664062 2.25 -8.53125 2.25 -8.375 C 2.25 -8.195312 2.1875 -8.046875 2.0625 -7.921875 C 1.945312 -7.796875 1.800781 -7.734375 1.625 -7.734375 Z M 1.625 -7.734375 "/></g></g></g><g fill="#000000" fill-opacity="1"><g transform="translate(113.575992, 54.732269)"><g><path d="M 3.828125 0.0625 C 3.203125 0.0625 2.640625 -0.0703125 2.140625 -0.34375 C 1.648438 -0.625 1.265625 -1.007812 0.984375 -1.5 C 0.703125 -2 0.5625 -2.554688 0.5625 -3.171875 C 0.5625 -3.796875 0.703125 -4.351562 0.984375 -4.84375 C 1.265625 -5.332031 1.648438 -5.710938 2.140625 -5.984375 C 2.640625 -6.265625 3.203125 -6.40625 3.828125 -6.40625 C 4.378906 -6.40625 4.867188 -6.296875 5.296875 -6.078125 C 5.722656 -5.867188 6.0625 -5.554688 6.3125 -5.140625 L 5.671875 -4.703125 C 5.460938 -5.023438 5.195312 -5.265625 4.875 -5.421875 C 4.550781 -5.578125 4.203125 -5.65625 3.828125 -5.65625 C 3.367188 -5.65625 2.957031 -5.550781 2.59375 -5.34375 C 2.226562 -5.132812 1.941406 -4.84375 1.734375 -4.46875 C 1.523438 -4.09375 1.421875 -3.660156 1.421875 -3.171875 C 1.421875 -2.679688 1.523438 -2.25 1.734375 -1.875 C 1.941406 -1.5 2.226562 -1.207031 2.59375 -1 C 2.957031 -0.800781 3.367188 -0.703125 3.828125 -0.703125 C 4.203125 -0.703125 4.550781 -0.773438 4.875 -0.921875 C 5.195312 -1.078125 5.460938 -1.3125 5.671875 -1.625 L 6.3125 -1.203125 C 6.0625 -0.785156 5.71875 -0.46875 5.28125 -0.25 C 4.851562 -0.0390625 4.367188 0.0625 3.828125 0.0625 Z M 3.828125 0.0625 "/></g></g></g><g fill="#000000" fill-opacity="1"><g transform="translate(120.373668, 54.732269)"><g><path d="M 1.203125 -6.359375 L 2.046875 -6.359375 L 2.046875 0 L 1.203125 0 Z M 1.625 -7.734375 C 1.445312 -7.734375 1.296875 -7.796875 1.171875 -7.921875 C 1.054688 -8.046875 1 -8.191406 1 -8.359375 C 1 -8.515625 1.054688 -8.65625 1.171875 -8.78125 C 1.296875 -8.90625 1.445312 -8.96875 1.625 -8.96875 C 1.800781 -8.96875 1.945312 -8.90625 2.0625 -8.78125 C 2.1875 -8.664062 2.25 -8.53125 2.25 -8.375 C 2.25 -8.195312 2.1875 -8.046875 2.0625 -7.921875 C 1.945312 -7.796875 1.800781 -7.734375 1.625 -7.734375 Z M 1.625 -7.734375 "/></g></g></g><g fill="#000000" fill-opacity="1"><g transform="translate(123.621588, 54.732269)"><g><path d="M 7 -8.96875 L 7 0 L 6.171875 0 L 6.171875 -1.25 C 5.910156 -0.820312 5.566406 -0.492188 5.140625 -0.265625 C 4.722656 -0.046875 4.25 0.0625 3.71875 0.0625 C 3.125 0.0625 2.582031 -0.0703125 2.09375 -0.34375 C 1.613281 -0.625 1.238281 -1.007812 0.96875 -1.5 C 0.695312 -1.988281 0.5625 -2.546875 0.5625 -3.171875 C 0.5625 -3.804688 0.695312 -4.367188 0.96875 -4.859375 C 1.238281 -5.347656 1.613281 -5.726562 2.09375 -6 C 2.582031 -6.269531 3.125 -6.40625 3.71875 -6.40625 C 4.238281 -6.40625 4.703125 -6.296875 5.109375 -6.078125 C 5.523438 -5.867188 5.867188 -5.554688 6.140625 -5.140625 L 6.140625 -8.96875 Z M 3.796875 -0.703125 C 4.234375 -0.703125 4.628906 -0.800781 4.984375 -1 C 5.347656 -1.207031 5.628906 -1.5 5.828125 -1.875 C 6.035156 -2.257812 6.140625 -2.691406 6.140625 -3.171875 C 6.140625 -3.660156 6.035156 -4.09375 5.828125 -4.46875 C 5.628906 -4.84375 5.347656 -5.132812 4.984375 -5.34375 C 4.628906 -5.550781 4.234375 -5.65625 3.796875 -5.65625 C 3.335938 -5.65625 2.929688 -5.550781 2.578125 -5.34375 C 2.222656 -5.132812 1.941406 -4.84375 1.734375 -4.46875 C 1.523438 -4.09375 1.421875 -3.660156 1.421875 -3.171875 C 1.421875 -2.691406 1.523438 -2.257812 1.734375 -1.875 C 1.941406 -1.5 2.222656 -1.207031 2.578125 -1 C 2.929688 -0.800781 3.335938 -0.703125 3.796875 -0.703125 Z M 3.796875 -0.703125 "/></g></g></g><g fill="#000000" fill-opacity="1"><g transform="translate(131.807789, 54.732269)"><g><path d="M 6.734375 -2.90625 L 1.40625 -2.90625 C 1.457031 -2.25 1.710938 -1.71875 2.171875 -1.3125 C 2.628906 -0.90625 3.207031 -0.703125 3.90625 -0.703125 C 4.300781 -0.703125 4.664062 -0.769531 5 -0.90625 C 5.332031 -1.050781 5.617188 -1.257812 5.859375 -1.53125 L 6.34375 -0.984375 C 6.0625 -0.640625 5.707031 -0.378906 5.28125 -0.203125 C 4.863281 -0.0234375 4.398438 0.0625 3.890625 0.0625 C 3.234375 0.0625 2.65625 -0.0703125 2.15625 -0.34375 C 1.65625 -0.625 1.265625 -1.007812 0.984375 -1.5 C 0.703125 -2 0.5625 -2.554688 0.5625 -3.171875 C 0.5625 -3.796875 0.691406 -4.351562 0.953125 -4.84375 C 1.222656 -5.332031 1.59375 -5.710938 2.0625 -5.984375 C 2.539062 -6.265625 3.070312 -6.40625 3.65625 -6.40625 C 4.25 -6.40625 4.773438 -6.265625 5.234375 -5.984375 C 5.703125 -5.710938 6.066406 -5.332031 6.328125 -4.84375 C 6.597656 -4.363281 6.734375 -3.804688 6.734375 -3.171875 Z M 3.65625 -5.671875 C 3.039062 -5.671875 2.523438 -5.472656 2.109375 -5.078125 C 1.703125 -4.691406 1.46875 -4.179688 1.40625 -3.546875 L 5.921875 -3.546875 C 5.859375 -4.179688 5.617188 -4.691406 5.203125 -5.078125 C 4.796875 -5.472656 4.28125 -5.671875 3.65625 -5.671875 Z M 3.65625 -5.671875 "/></g></g></g><g fill="#000000" fill-opacity="1"><g transform="translate(139.100501, 54.732269)"><g/></g></g><g fill="#000000" fill-opacity="1"><g transform="translate(142.263904, 54.732269)"><g><path d="M 3.421875 -6.40625 C 4.242188 -6.40625 4.875 -6.195312 5.3125 -5.78125 C 5.757812 -5.363281 5.984375 -4.75 5.984375 -3.9375 L 5.984375 0 L 5.171875 0 L 5.171875 -0.984375 C 4.972656 -0.660156 4.6875 -0.40625 4.3125 -0.21875 C 3.9375 -0.03125 3.492188 0.0625 2.984375 0.0625 C 2.273438 0.0625 1.710938 -0.101562 1.296875 -0.4375 C 0.878906 -0.78125 0.671875 -1.226562 0.671875 -1.78125 C 0.671875 -2.320312 0.863281 -2.757812 1.25 -3.09375 C 1.632812 -3.425781 2.253906 -3.59375 3.109375 -3.59375 L 5.140625 -3.59375 L 5.140625 -3.96875 C 5.140625 -4.519531 4.984375 -4.9375 4.671875 -5.21875 C 4.367188 -5.507812 3.921875 -5.65625 3.328125 -5.65625 C 2.929688 -5.65625 2.546875 -5.585938 2.171875 -5.453125 C 1.804688 -5.316406 1.488281 -5.132812 1.21875 -4.90625 L 0.828125 -5.546875 C 1.148438 -5.816406 1.535156 -6.023438 1.984375 -6.171875 C 2.441406 -6.328125 2.921875 -6.40625 3.421875 -6.40625 Z M 3.109375 -0.609375 C 3.597656 -0.609375 4.015625 -0.71875 4.359375 -0.9375 C 4.703125 -1.164062 4.960938 -1.488281 5.140625 -1.90625 L 5.140625 -2.953125 L 3.140625 -2.953125 C 2.054688 -2.953125 1.515625 -2.570312 1.515625 -1.8125 C 1.515625 -1.4375 1.65625 -1.140625 1.9375 -0.921875 C 2.21875 -0.710938 2.609375 -0.609375 3.109375 -0.609375 Z M 3.109375 -0.609375 "/></g></g></g><g fill="#000000" fill-opacity="1"><g transform="translate(149.387581, 54.732269)"><g><path d="M 4.46875 -6.40625 C 5.0625 -6.40625 5.597656 -6.269531 6.078125 -6 C 6.566406 -5.726562 6.945312 -5.347656 7.21875 -4.859375 C 7.5 -4.367188 7.640625 -3.804688 7.640625 -3.171875 C 7.640625 -2.535156 7.5 -1.972656 7.21875 -1.484375 C 6.945312 -0.992188 6.570312 -0.613281 6.09375 -0.34375 C 5.613281 -0.0703125 5.070312 0.0625 4.46875 0.0625 C 3.957031 0.0625 3.492188 -0.0390625 3.078125 -0.25 C 2.660156 -0.46875 2.316406 -0.785156 2.046875 -1.203125 L 2.046875 2.34375 L 1.203125 2.34375 L 1.203125 -6.359375 L 2.015625 -6.359375 L 2.015625 -5.09375 C 2.273438 -5.507812 2.613281 -5.832031 3.03125 -6.0625 C 3.457031 -6.289062 3.9375 -6.40625 4.46875 -6.40625 Z M 4.40625 -0.703125 C 4.851562 -0.703125 5.253906 -0.800781 5.609375 -1 C 5.972656 -1.207031 6.257812 -1.5 6.46875 -1.875 C 6.675781 -2.257812 6.78125 -2.691406 6.78125 -3.171875 C 6.78125 -3.660156 6.675781 -4.09375 6.46875 -4.46875 C 6.257812 -4.84375 5.972656 -5.132812 5.609375 -5.34375 C 5.253906 -5.550781 4.851562 -5.65625 4.40625 -5.65625 C 3.957031 -5.65625 3.550781 -5.550781 3.1875 -5.34375 C 2.832031 -5.132812 2.550781 -4.84375 2.34375 -4.46875 C 2.144531 -4.09375 2.046875 -3.660156 2.046875 -3.171875 C 2.046875 -2.691406 2.144531 -2.257812 2.34375 -1.875 C 2.550781 -1.5 2.832031 -1.207031 3.1875 -1 C 3.550781 -0.800781 3.957031 -0.703125 4.40625 -0.703125 Z M 4.40625 -0.703125 "/></g></g></g><g fill="#000000" fill-opacity="1"><g transform="translate(157.573782, 54.732269)"><g><path d="M 4.46875 -6.40625 C 5.0625 -6.40625 5.597656 -6.269531 6.078125 -6 C 6.566406 -5.726562 6.945312 -5.347656 7.21875 -4.859375 C 7.5 -4.367188 7.640625 -3.804688 7.640625 -3.171875 C 7.640625 -2.535156 7.5 -1.972656 7.21875 -1.484375 C 6.945312 -0.992188 6.570312 -0.613281 6.09375 -0.34375 C 5.613281 -0.0703125 5.070312 0.0625 4.46875 0.0625 C 3.957031 0.0625 3.492188 -0.0390625 3.078125 -0.25 C 2.660156 -0.46875 2.316406 -0.785156 2.046875 -1.203125 L 2.046875 2.34375 L 1.203125 2.34375 L 1.203125 -6.359375 L 2.015625 -6.359375 L 2.015625 -5.09375 C 2.273438 -5.507812 2.613281 -5.832031 3.03125 -6.0625 C 3.457031 -6.289062 3.9375 -6.40625 4.46875 -6.40625 Z M 4.40625 -0.703125 C 4.851562 -0.703125 5.253906 -0.800781 5.609375 -1 C 5.972656 -1.207031 6.257812 -1.5 6.46875 -1.875 C 6.675781 -2.257812 6.78125 -2.691406 6.78125 -3.171875 C 6.78125 -3.660156 6.675781 -4.09375 6.46875 -4.46875 C 6.257812 -4.84375 5.972656 -5.132812 5.609375 -5.34375 C 5.253906 -5.550781 4.851562 -5.65625 4.40625 -5.65625 C 3.957031 -5.65625 3.550781 -5.550781 3.1875 -5.34375 C 2.832031 -5.132812 2.550781 -4.84375 2.34375 -4.46875 C 2.144531 -4.09375 2.046875 -3.660156 2.046875 -3.171875 C 2.046875 -2.691406 2.144531 -2.257812 2.34375 -1.875 C 2.550781 -1.5 2.832031 -1.207031 3.1875 -1 C 3.550781 -0.800781 3.957031 -0.703125 4.40625 -0.703125 Z M 4.40625 -0.703125 "/></g></g></g></svg>