<svg xmlns="http://www.w3.org/2000/svg" xmlns:xlink="http://www.w3.org/1999/xlink" width="250" zoomAndPan="magnify" viewBox="0 0 187.5 56.249996" height="75" preserveAspectRatio="xMidYMid meet" version="1.0"><defs><g/><clipPath id="c82d49a33b"><path d="M 2.191406 3.882812 L 49.488281 3.882812 L 49.488281 51.179688 L 2.191406 51.179688 Z M 2.191406 3.882812 " clip-rule="nonzero"/></clipPath><clipPath id="922096cdc9"><path d="M 6.507812 3.882812 L 45.171875 3.882812 C 46.316406 3.882812 47.414062 4.339844 48.222656 5.148438 C 49.035156 5.957031 49.488281 7.058594 49.488281 8.203125 L 49.488281 46.863281 C 49.488281 48.007812 49.035156 49.105469 48.222656 49.914062 C 47.414062 50.726562 46.316406 51.179688 45.171875 51.179688 L 6.507812 51.179688 C 5.363281 51.179688 4.265625 50.726562 3.457031 49.914062 C 2.644531 49.105469 2.191406 48.007812 2.191406 46.863281 L 2.191406 8.203125 C 2.191406 7.058594 2.644531 5.957031 3.457031 5.148438 C 4.265625 4.339844 5.363281 3.882812 6.507812 3.882812 Z M 6.507812 3.882812 " clip-rule="nonzero"/></clipPath><clipPath id="3d62011629"><path d="M 15 8.734375 L 37 8.734375 L 37 31 L 15 31 Z M 15 8.734375 " clip-rule="nonzero"/></clipPath><clipPath id="c788730bd3"><path d="M 13.761719 19 L 25 19 L 25 26 L 13.761719 26 Z M 13.761719 19 " clip-rule="nonzero"/></clipPath><clipPath id="d430e01f1a"><path d="M 13.761719 19 L 25 19 L 25 25 L 13.761719 25 Z M 13.761719 19 " clip-rule="nonzero"/></clipPath></defs><g clip-path="url(#c82d49a33b)"><g clip-path="url(#922096cdc9)"><path fill="#6b36aa" d="M 2.191406 3.882812 L 49.488281 3.882812 L 49.488281 51.179688 L 2.191406 51.179688 Z M 2.191406 3.882812 " fill-opacity="1" fill-rule="nonzero"/></g></g><g clip-path="url(#3d62011629)"><path fill="#ffffff" d="M 25.878906 12.722656 C 22.121094 12.722656 19.0625 15.777344 19.0625 19.535156 C 19.0625 23.292969 22.121094 26.347656 25.878906 26.347656 C 29.632812 26.347656 32.691406 23.292969 32.691406 19.535156 C 32.691406 15.777344 29.632812 12.722656 25.878906 12.722656 Z M 25.878906 30.335938 C 19.921875 30.335938 15.078125 25.488281 15.078125 19.535156 C 15.078125 13.578125 19.921875 8.734375 25.878906 8.734375 C 31.832031 8.734375 36.679688 13.578125 36.679688 19.535156 C 36.679688 25.488281 31.832031 30.335938 25.878906 30.335938 " fill-opacity="1" fill-rule="nonzero"/></g><path fill="#ffffff" d="M 27.871094 46.304688 L 23.882812 46.304688 L 23.882812 28.054688 L 27.871094 28.054688 L 27.871094 46.304688 " fill-opacity="1" fill-rule="nonzero"/><path fill="#ffffff" d="M 33.394531 39.242188 L 18.359375 39.242188 L 18.359375 35.253906 L 33.394531 35.253906 L 33.394531 39.242188 " fill-opacity="1" fill-rule="nonzero"/><path fill="#e61f93" d="M 14.828125 20.957031 C 14.792969 20.953125 14.757812 20.953125 14.726562 20.949219 C 14.726562 20.941406 14.722656 20.933594 14.722656 20.925781 C 14.753906 20.9375 14.792969 20.945312 14.828125 20.957031 " fill-opacity="1" fill-rule="nonzero"/><path fill="#ffffff" d="M 15.894531 21.113281 L 14.644531 21.054688 L 14.621094 20.976562 C 14.621094 20.96875 14.617188 20.957031 14.613281 20.945312 L 14.582031 20.761719 L 14.757812 20.820312 C 14.789062 20.832031 14.820312 20.84375 14.855469 20.851562 L 15.894531 21.113281 " fill-opacity="1" fill-rule="nonzero"/><path fill="#e61f93" d="M 18.148438 29.070312 C 18.589844 29.859375 19.136719 30.726562 19.988281 31.039062 C 20.828125 31.351562 21.765625 31.0625 22.65625 30.703125 C 23.609375 30.320312 24.628906 29.851562 25.773438 29.273438 C 26.238281 29.039062 26.699219 28.800781 27.160156 28.554688 C 27.183594 28.542969 27.207031 28.53125 27.234375 28.519531 C 27.714844 28.261719 28.195312 28.003906 28.667969 27.75 C 29.167969 27.480469 29.667969 27.214844 30.167969 26.949219 C 30.492188 26.777344 30.925781 26.550781 31.367188 26.324219 C 31.460938 26.277344 31.554688 26.230469 31.648438 26.183594 C 31.679688 26.167969 31.707031 26.15625 31.734375 26.140625 C 31.765625 26.125 31.800781 26.109375 31.835938 26.09375 C 31.859375 26.082031 31.886719 26.070312 31.910156 26.058594 C 32.214844 25.914062 32.515625 25.792969 32.832031 25.703125 C 32.992188 25.65625 33.152344 25.625 33.3125 25.59375 C 33.566406 25.546875 33.816406 25.511719 34.0625 25.476562 C 34.351562 25.441406 34.648438 25.402344 34.933594 25.339844 C 35.128906 25.300781 35.324219 25.25 35.519531 25.1875 L 35.53125 25.183594 C 36.046875 25.015625 36.53125 24.78125 36.976562 24.488281 L 36.996094 24.476562 C 37.140625 24.378906 37.324219 24.257812 37.367188 24.117188 C 37.390625 24.046875 37.382812 23.980469 37.347656 23.925781 C 37.3125 23.863281 37.246094 23.820312 37.171875 23.804688 C 37.089844 23.792969 37.085938 23.789062 37.066406 23.777344 C 37.011719 23.761719 36.984375 23.703125 37 23.648438 C 37.015625 23.59375 37.070312 23.5625 37.125 23.570312 C 37.269531 23.597656 37.457031 23.53125 37.585938 23.410156 C 37.660156 23.339844 37.746094 23.21875 37.726562 23.054688 C 37.714844 22.945312 37.675781 22.867188 37.613281 22.820312 C 37.503906 22.738281 37.304688 22.722656 36.984375 22.773438 C 36.925781 22.78125 36.871094 22.742188 36.859375 22.683594 C 36.851562 22.625 36.890625 22.566406 36.949219 22.558594 C 37.160156 22.519531 37.394531 22.460938 37.523438 22.265625 C 37.566406 22.199219 37.578125 22.128906 37.558594 22.046875 C 37.53125 21.941406 37.449219 21.839844 37.347656 21.785156 C 37.234375 21.722656 37.183594 21.722656 37.03125 21.726562 L 36.914062 21.726562 C 36.859375 21.726562 36.8125 21.683594 36.808594 21.628906 C 36.800781 21.574219 36.835938 21.523438 36.890625 21.511719 L 36.898438 21.511719 L 36.910156 21.507812 L 36.917969 21.507812 C 37.140625 21.457031 37.296875 21.355469 37.304688 21.25 C 37.324219 21.042969 37.207031 20.941406 37.109375 20.890625 C 37.015625 20.847656 36.898438 20.828125 36.78125 20.835938 C 36.324219 20.875 35.925781 21.066406 35.503906 21.273438 C 35.082031 21.476562 34.648438 21.6875 34.15625 21.730469 C 34.046875 21.738281 33.949219 21.6875 33.890625 21.597656 C 33.832031 21.503906 33.824219 21.386719 33.878906 21.292969 C 34.046875 20.976562 34.414062 20.828125 34.5625 20.78125 C 34.664062 20.746094 34.761719 20.71875 34.859375 20.695312 C 35.136719 20.617188 35.378906 20.554688 35.613281 20.320312 C 35.636719 20.292969 35.683594 20.242188 35.707031 20.214844 C 35.75 20.15625 35.761719 20.097656 35.742188 20.046875 C 35.71875 19.984375 35.648438 19.941406 35.554688 19.925781 C 35.296875 19.878906 34.96875 19.921875 34.765625 19.972656 C 33.757812 20.226562 33.125 20.519531 32.46875 21.410156 C 32.300781 21.636719 32.160156 21.859375 32.019531 22.070312 C 31.835938 22.355469 31.648438 22.644531 31.40625 22.945312 C 31.28125 23.101562 31.132812 23.246094 30.953125 23.386719 C 30.59375 23.664062 30.171875 23.859375 29.890625 23.984375 C 28.699219 24.503906 27.101562 24.953125 25.820312 25.316406 L 25.65625 25.363281 C 24.109375 25.796875 22.515625 26.25 21.304688 26.785156 C 21.292969 26.789062 21.277344 26.792969 21.261719 26.792969 L 21.253906 26.792969 C 21.238281 26.792969 21.222656 26.789062 21.207031 26.777344 C 20.902344 26.597656 20.613281 26.429688 20.332031 26.269531 C 20.238281 26.214844 20.144531 26.160156 20.050781 26.109375 C 19.570312 25.835938 19.128906 25.59375 18.652344 25.433594 C 18.269531 25.304688 17.863281 25.230469 17.46875 25.160156 C 17.179688 25.109375 16.878906 25.054688 16.585938 24.976562 C 16.507812 24.957031 16.433594 24.9375 16.355469 24.914062 C 16.335938 24.90625 16.3125 24.898438 16.289062 24.894531 C 16.230469 24.875 16.171875 24.855469 16.113281 24.835938 C 16.101562 24.832031 16.085938 24.828125 16.074219 24.820312 C 16.628906 26.191406 17.304688 27.582031 18.148438 29.070312 " fill-opacity="1" fill-rule="nonzero"/><g clip-path="url(#c788730bd3)"><path fill="#e61f93" d="M 14.707031 23.167969 C 14.703125 23.21875 14.898438 23.347656 15.570312 23.640625 C 16.242188 23.929688 17.019531 24.085938 17.703125 24.21875 C 18.136719 24.308594 18.546875 24.386719 18.878906 24.496094 C 19.570312 24.722656 20.847656 25.480469 21.328125 25.773438 C 21.960938 25.480469 23.3125 25.0625 24.335938 24.761719 C 23.417969 24.402344 22.5 24.023438 21.738281 23.648438 C 21.4375 23.5 21.046875 23.292969 20.714844 23.011719 C 20.542969 22.867188 20.394531 22.707031 20.269531 22.539062 C 20.042969 22.230469 19.871094 21.933594 19.699219 21.644531 C 19.570312 21.421875 19.4375 21.195312 19.277344 20.957031 C 18.664062 20.035156 18.046875 19.714844 17.050781 19.414062 C 16.847656 19.351562 16.523438 19.292969 16.261719 19.328125 C 16.167969 19.339844 16.097656 19.382812 16.070312 19.441406 C 16.050781 19.492188 16.058594 19.550781 16.101562 19.609375 C 16.121094 19.640625 16.164062 19.695312 16.1875 19.71875 C 16.414062 19.964844 16.652344 20.042969 16.925781 20.128906 C 17.019531 20.160156 17.117188 20.191406 17.21875 20.230469 C 17.363281 20.285156 17.722656 20.453125 17.878906 20.773438 C 17.925781 20.871094 17.914062 20.988281 17.851562 21.078125 C 17.789062 21.164062 17.683594 21.210938 17.578125 21.195312 C 17.089844 21.132812 16.664062 20.902344 16.253906 20.679688 C 15.839844 20.453125 15.453125 20.242188 14.996094 20.183594 C 14.859375 20.164062 14.730469 20.183594 14.632812 20.238281 C 14.507812 20.304688 14.449219 20.417969 14.453125 20.570312 C 14.457031 20.660156 14.578125 20.761719 14.757812 20.820312 C 14.789062 20.832031 14.820312 20.84375 14.851562 20.851562 C 14.90625 20.863281 14.941406 20.914062 14.9375 20.96875 C 14.929688 21.023438 14.878906 21.066406 14.824219 21.0625 C 14.785156 21.0625 14.753906 21.0625 14.71875 21.058594 C 14.558594 21.046875 14.507812 21.042969 14.390625 21.101562 C 14.28125 21.15625 14.195312 21.253906 14.164062 21.355469 C 14.144531 21.433594 14.152344 21.507812 14.191406 21.574219 C 14.308594 21.777344 14.542969 21.84375 14.753906 21.894531 C 14.8125 21.90625 14.847656 21.964844 14.835938 22.023438 C 14.824219 22.082031 14.765625 22.117188 14.707031 22.105469 C 14.390625 22.039062 14.191406 22.046875 14.078125 22.125 C 14.011719 22.167969 13.96875 22.242188 13.953125 22.351562 C 13.925781 22.515625 14.003906 22.640625 14.078125 22.714844 C 14.199219 22.839844 14.386719 22.917969 14.53125 22.898438 L 14.542969 22.898438 C 14.59375 22.898438 14.640625 22.933594 14.652344 22.984375 C 14.664062 23.039062 14.628906 23.09375 14.574219 23.109375 C 14.558594 23.117188 14.554688 23.117188 14.472656 23.128906 C 14.398438 23.140625 14.328125 23.183594 14.289062 23.242188 C 14.253906 23.292969 14.246094 23.359375 14.261719 23.425781 L 14.707031 23.167969 C 14.707031 23.167969 14.703125 23.183594 14.707031 23.167969 " fill-opacity="1" fill-rule="nonzero"/></g><path fill="#e61f93" d="M 33.441406 26.503906 C 33.441406 26.503906 33.230469 26.53125 32.867188 26.640625 C 32.496094 26.753906 31.941406 27.035156 31.9375 27.039062 L 26.777344 29.765625 C 27.441406 30.117188 28.0625 30.425781 28.664062 30.703125 C 29.535156 31.101562 30.460938 31.433594 31.3125 31.164062 C 32.175781 30.890625 32.761719 30.050781 33.238281 29.285156 C 33.90625 28.222656 34.480469 27.210938 34.980469 26.214844 C 34.296875 26.351562 33.511719 26.492188 33.464844 26.5 C 33.457031 26.503906 33.449219 26.503906 33.441406 26.503906 " fill-opacity="1" fill-rule="nonzero"/><path fill="#e61f93" d="M 31.910156 26.058594 C 32.214844 25.914062 32.515625 25.792969 32.832031 25.703125 C 32.992188 25.65625 33.152344 25.625 33.3125 25.59375 C 33.152344 25.625 32.992188 25.65625 32.832031 25.703125 C 32.515625 25.792969 32.214844 25.914062 31.910156 26.058594 " fill-opacity="1" fill-rule="nonzero"/><path fill="#e61f93" d="M 25.820312 25.316406 C 27.101562 24.953125 28.699219 24.503906 29.890625 23.984375 C 30.171875 23.859375 30.59375 23.664062 30.953125 23.386719 C 31.132812 23.246094 31.28125 23.101562 31.40625 22.945312 C 31.648438 22.644531 31.835938 22.355469 32.019531 22.070312 C 32.160156 21.859375 32.300781 21.636719 32.46875 21.410156 C 33.125 20.519531 33.757812 20.226562 34.765625 19.972656 C 34.96875 19.921875 35.296875 19.878906 35.554688 19.925781 C 35.648438 19.941406 35.71875 19.984375 35.742188 20.046875 C 35.761719 20.097656 35.75 20.15625 35.707031 20.214844 C 35.683594 20.242188 35.636719 20.292969 35.613281 20.320312 C 35.378906 20.554688 35.136719 20.617188 34.859375 20.695312 C 34.761719 20.71875 34.664062 20.746094 34.5625 20.78125 C 34.414062 20.828125 34.046875 20.976562 33.878906 21.292969 C 33.824219 21.386719 33.832031 21.503906 33.890625 21.597656 C 33.949219 21.6875 34.046875 21.738281 34.15625 21.730469 C 34.648438 21.6875 35.082031 21.476562 35.503906 21.273438 C 35.925781 21.066406 36.324219 20.875 36.78125 20.835938 C 36.898438 20.828125 37.015625 20.847656 37.109375 20.890625 C 37.207031 20.941406 37.324219 21.042969 37.304688 21.25 C 37.296875 21.355469 37.140625 21.457031 36.917969 21.507812 L 36.910156 21.507812 L 36.917969 21.507812 L 37.089844 21.464844 L 37.0625 21.578125 C 37.273438 21.507812 37.402344 21.394531 37.414062 21.261719 C 37.433594 21.03125 37.324219 20.875 37.15625 20.792969 C 37.046875 20.738281 36.910156 20.71875 36.773438 20.726562 C 35.820312 20.804688 35.09375 21.542969 34.144531 21.621094 C 34.003906 21.632812 33.902344 21.472656 33.972656 21.34375 C 34.09375 21.125 34.347656 20.964844 34.59375 20.882812 C 35 20.75 35.351562 20.734375 35.6875 20.398438 C 35.71875 20.367188 35.769531 20.3125 35.792969 20.28125 C 35.9375 20.089844 35.839844 19.863281 35.574219 19.816406 C 35.3125 19.769531 34.980469 19.804688 34.738281 19.867188 C 33.679688 20.132812 33.039062 20.453125 32.378906 21.347656 C 31.988281 21.882812 31.738281 22.359375 31.324219 22.875 C 31.195312 23.035156 31.046875 23.175781 30.886719 23.300781 C 30.574219 23.542969 30.210938 23.726562 29.847656 23.882812 C 28.734375 24.367188 27.324219 24.777344 25.894531 25.179688 C 25.898438 25.191406 25.902344 25.203125 25.898438 25.214844 C 25.898438 25.261719 25.867188 25.300781 25.820312 25.316406 " fill-opacity="1" fill-rule="nonzero"/><path fill="#e61f93" d="M 21.207031 26.777344 C 20.902344 26.597656 20.613281 26.429688 20.332031 26.269531 C 20.613281 26.429688 20.902344 26.597656 21.207031 26.777344 " fill-opacity="1" fill-rule="nonzero"/><path fill="#e61f93" d="M 25.773438 29.273438 C 26.238281 29.039062 26.699219 28.800781 27.160156 28.554688 C 26.699219 28.800781 26.238281 29.039062 25.773438 29.273438 C 24.628906 29.851562 23.609375 30.320312 22.65625 30.703125 C 21.765625 31.0625 20.828125 31.351562 19.988281 31.039062 C 19.136719 30.726562 18.589844 29.859375 18.148438 29.070312 C 17.304688 27.582031 16.628906 26.191406 16.074219 24.820312 C 16.085938 24.828125 16.101562 24.832031 16.113281 24.835938 C 16.054688 24.8125 15.996094 24.792969 15.9375 24.769531 C 16.539062 26.269531 17.261719 27.722656 18.050781 29.125 C 18.519531 29.953125 19.074219 30.816406 19.953125 31.140625 C 20.839844 31.46875 21.820312 31.15625 22.695312 30.804688 C 23.71875 30.394531 24.71875 29.925781 25.707031 29.429688 L 25.59375 29.367188 L 25.773438 29.273438 " fill-opacity="1" fill-rule="nonzero"/><path fill="#e61f93" d="M 31.835938 26.09375 C 31.800781 26.109375 31.765625 26.125 31.734375 26.140625 C 31.765625 26.125 31.800781 26.109375 31.835938 26.09375 " fill-opacity="1" fill-rule="nonzero"/><path fill="#e61f93" d="M 36.941406 21.726562 L 36.914062 21.726562 L 36.90625 21.609375 L 36.835938 21.59375 L 36.90625 21.605469 L 36.898438 21.511719 L 36.890625 21.511719 C 36.835938 21.523438 36.800781 21.574219 36.808594 21.628906 C 36.8125 21.683594 36.859375 21.726562 36.914062 21.726562 L 37.03125 21.726562 C 37.183594 21.722656 37.234375 21.722656 37.347656 21.785156 C 37.449219 21.839844 37.53125 21.941406 37.558594 22.046875 C 37.578125 22.128906 37.566406 22.199219 37.523438 22.265625 C 37.394531 22.460938 37.160156 22.519531 36.949219 22.558594 C 36.890625 22.566406 36.851562 22.625 36.859375 22.683594 C 36.871094 22.742188 36.925781 22.78125 36.984375 22.773438 C 37.304688 22.722656 37.503906 22.738281 37.613281 22.820312 C 37.675781 22.867188 37.714844 22.945312 37.726562 23.054688 C 37.746094 23.21875 37.660156 23.339844 37.585938 23.410156 C 37.457031 23.53125 37.269531 23.597656 37.125 23.570312 C 37.070312 23.5625 37.015625 23.59375 37 23.648438 C 36.984375 23.703125 37.011719 23.761719 37.066406 23.777344 C 37.085938 23.789062 37.089844 23.792969 37.171875 23.804688 C 37.246094 23.820312 37.3125 23.863281 37.347656 23.925781 C 37.382812 23.980469 37.390625 24.046875 37.367188 24.117188 C 37.324219 24.257812 37.140625 24.378906 36.996094 24.476562 L 36.976562 24.488281 C 36.53125 24.78125 36.046875 25.015625 35.53125 25.183594 L 35.753906 25.109375 L 35.691406 25.242188 C 36.164062 25.078125 36.617188 24.855469 37.039062 24.578125 C 37.203125 24.46875 37.414062 24.335938 37.472656 24.152344 C 37.546875 23.917969 37.378906 23.730469 37.191406 23.699219 C 37.097656 23.683594 37.128906 23.6875 37.105469 23.679688 C 37.414062 23.734375 37.886719 23.457031 37.835938 23.039062 C 37.785156 22.625 37.417969 22.59375 36.96875 22.664062 C 37.191406 22.625 37.460938 22.558594 37.613281 22.324219 C 37.761719 22.097656 37.625 21.8125 37.398438 21.6875 C 37.269531 21.617188 37.195312 21.613281 37.050781 21.617188 L 37.023438 21.722656 L 36.941406 21.726562 " fill-opacity="1" fill-rule="nonzero"/><path fill="#e61f93" d="M 30.167969 26.949219 C 29.667969 27.214844 29.167969 27.480469 28.667969 27.75 C 28.195312 28.003906 27.714844 28.261719 27.234375 28.519531 C 27.722656 28.257812 28.207031 28 28.683594 27.742188 C 29.175781 27.476562 29.671875 27.210938 30.167969 26.949219 C 30.605469 26.71875 31 26.511719 31.363281 26.328125 C 31.460938 26.277344 31.554688 26.230469 31.648438 26.183594 C 31.554688 26.230469 31.460938 26.277344 31.367188 26.324219 C 30.925781 26.550781 30.492188 26.777344 30.167969 26.949219 " fill-opacity="1" fill-rule="nonzero"/><path fill="#e61f93" d="M 16.289062 24.894531 C 16.3125 24.898438 16.335938 24.90625 16.355469 24.914062 C 16.335938 24.90625 16.3125 24.898438 16.289062 24.894531 " fill-opacity="1" fill-rule="nonzero"/><path fill="#e61f93" d="M 21.304688 26.785156 C 21.289062 26.792969 21.273438 26.792969 21.257812 26.792969 L 21.261719 26.792969 C 21.277344 26.792969 21.292969 26.789062 21.304688 26.785156 " fill-opacity="1" fill-rule="nonzero"/><path fill="#e61f93" d="M 21.207031 26.777344 C 21.222656 26.789062 21.238281 26.792969 21.253906 26.792969 C 21.238281 26.792969 21.222656 26.789062 21.207031 26.777344 " fill-opacity="1" fill-rule="nonzero"/><path fill="#e61f93" d="M 16.113281 24.835938 C 16.171875 24.855469 16.230469 24.875 16.289062 24.894531 C 16.230469 24.875 16.171875 24.855469 16.113281 24.835938 " fill-opacity="1" fill-rule="nonzero"/><path fill="#e61f93" d="M 16.355469 24.914062 C 16.433594 24.9375 16.507812 24.957031 16.585938 24.976562 C 16.507812 24.957031 16.433594 24.9375 16.355469 24.914062 " fill-opacity="1" fill-rule="nonzero"/><path fill="#e61f93" d="M 21.261719 26.683594 C 20.878906 26.457031 20.492188 26.234375 20.105469 26.015625 C 19.648438 25.753906 19.1875 25.496094 18.6875 25.332031 C 18.015625 25.105469 17.300781 25.050781 16.613281 24.875 C 16.363281 24.808594 16.121094 24.730469 15.882812 24.632812 C 15.898438 24.679688 15.917969 24.726562 15.9375 24.769531 C 15.996094 24.792969 16.054688 24.8125 16.113281 24.835938 C 16.171875 24.855469 16.230469 24.875 16.289062 24.894531 C 16.3125 24.898438 16.335938 24.90625 16.355469 24.914062 C 16.433594 24.9375 16.507812 24.957031 16.585938 24.976562 C 16.878906 25.054688 17.179688 25.109375 17.46875 25.160156 C 17.863281 25.230469 18.269531 25.304688 18.652344 25.433594 C 19.128906 25.59375 19.570312 25.835938 20.050781 26.109375 C 20.144531 26.160156 20.238281 26.214844 20.332031 26.269531 C 20.613281 26.429688 20.902344 26.597656 21.207031 26.777344 C 21.222656 26.789062 21.238281 26.792969 21.253906 26.792969 L 21.257812 26.792969 C 21.273438 26.792969 21.289062 26.792969 21.304688 26.785156 C 22.515625 26.25 24.109375 25.796875 25.65625 25.363281 L 25.820312 25.316406 C 25.867188 25.300781 25.898438 25.261719 25.898438 25.214844 C 25.902344 25.203125 25.898438 25.191406 25.894531 25.179688 C 25.859375 25.191406 25.828125 25.199219 25.792969 25.210938 C 24.164062 25.667969 22.519531 26.128906 21.261719 26.683594 " fill-opacity="1" fill-rule="nonzero"/><g clip-path="url(#d430e01f1a)"><path fill="#e61f93" d="M 21.785156 23.550781 C 21.433594 23.378906 21.085938 23.183594 20.785156 22.925781 C 20.625 22.792969 20.480469 22.644531 20.359375 22.476562 C 19.964844 21.941406 19.738281 21.449219 19.371094 20.898438 C 18.753906 19.976562 18.128906 19.625 17.082031 19.308594 C 16.84375 19.238281 16.511719 19.1875 16.25 19.21875 C 15.984375 19.253906 15.871094 19.476562 16.011719 19.671875 C 16.03125 19.703125 16.078125 19.765625 16.109375 19.796875 C 16.429688 20.148438 16.777344 20.175781 17.179688 20.332031 C 17.421875 20.425781 17.671875 20.597656 17.78125 20.820312 C 17.84375 20.953125 17.738281 21.109375 17.59375 21.089844 C 16.652344 20.96875 15.960938 20.195312 15.011719 20.074219 C 14.855469 20.054688 14.699219 20.078125 14.578125 20.144531 C 14.433594 20.222656 14.335938 20.367188 14.347656 20.574219 C 14.351562 20.714844 14.492188 20.847656 14.722656 20.925781 C 14.753906 20.9375 14.792969 20.945312 14.828125 20.957031 C 14.792969 20.953125 14.757812 20.953125 14.726562 20.949219 C 14.5625 20.9375 14.484375 20.933594 14.34375 21.003906 C 14.109375 21.117188 13.957031 21.398438 14.097656 21.628906 C 14.242188 21.871094 14.507812 21.949219 14.730469 22 C 14.28125 21.90625 13.914062 21.917969 13.84375 22.332031 C 13.777344 22.75 14.234375 23.046875 14.542969 23.003906 C 14.519531 23.011719 14.554688 23.007812 14.457031 23.023438 C 14.410156 23.027344 14.363281 23.042969 14.320312 23.066406 C 14.414062 23.078125 14.503906 23.085938 14.597656 23.097656 C 14.636719 23.074219 14.660156 23.03125 14.652344 22.984375 C 14.640625 22.933594 14.59375 22.898438 14.542969 22.898438 L 14.53125 22.898438 C 14.386719 22.917969 14.199219 22.839844 14.078125 22.714844 C 14.003906 22.640625 13.925781 22.515625 13.953125 22.351562 C 13.96875 22.242188 14.011719 22.167969 14.078125 22.125 C 14.191406 22.046875 14.390625 22.039062 14.707031 22.105469 C 14.765625 22.117188 14.824219 22.082031 14.835938 22.023438 C 14.847656 21.964844 14.8125 21.90625 14.753906 21.894531 C 14.542969 21.84375 14.308594 21.777344 14.191406 21.574219 C 14.152344 21.507812 14.144531 21.433594 14.164062 21.355469 C 14.195312 21.253906 14.28125 21.15625 14.390625 21.101562 C 14.507812 21.042969 14.558594 21.046875 14.71875 21.058594 C 14.753906 21.0625 14.785156 21.0625 14.824219 21.0625 C 14.878906 21.066406 14.929688 21.023438 14.9375 20.96875 C 14.941406 20.914062 14.90625 20.863281 14.851562 20.851562 C 14.820312 20.84375 14.789062 20.832031 14.757812 20.820312 C 14.578125 20.761719 14.457031 20.660156 14.453125 20.570312 C 14.449219 20.417969 14.507812 20.304688 14.632812 20.238281 C 14.730469 20.183594 14.859375 20.164062 14.996094 20.183594 C 15.453125 20.242188 15.839844 20.453125 16.253906 20.679688 C 16.664062 20.902344 17.089844 21.132812 17.578125 21.195312 C 17.683594 21.210938 17.789062 21.164062 17.851562 21.078125 C 17.914062 20.988281 17.925781 20.871094 17.878906 20.773438 C 17.722656 20.453125 17.363281 20.285156 17.21875 20.230469 C 17.117188 20.191406 17.019531 20.160156 16.925781 20.128906 C 16.652344 20.042969 16.414062 19.964844 16.1875 19.71875 C 16.164062 19.695312 16.121094 19.640625 16.101562 19.609375 C 16.058594 19.550781 16.050781 19.492188 16.070312 19.441406 C 16.097656 19.382812 16.167969 19.339844 16.261719 19.328125 C 16.523438 19.292969 16.847656 19.351562 17.050781 19.414062 C 18.046875 19.714844 18.664062 20.035156 19.277344 20.957031 C 19.4375 21.195312 19.570312 21.421875 19.699219 21.644531 C 19.871094 21.933594 20.042969 22.230469 20.269531 22.539062 C 20.394531 22.707031 20.542969 22.867188 20.714844 23.011719 C 21.046875 23.292969 21.4375 23.5 21.738281 23.648438 C 22.5 24.023438 23.417969 24.402344 24.335938 24.761719 C 24.390625 24.746094 24.449219 24.730469 24.503906 24.714844 C 23.511719 24.324219 22.574219 23.9375 21.785156 23.550781 " fill-opacity="1" fill-rule="nonzero"/></g><path fill="#e61f93" d="M 31.910156 26.058594 C 31.886719 26.070312 31.859375 26.082031 31.835938 26.09375 C 31.859375 26.082031 31.886719 26.070312 31.910156 26.058594 " fill-opacity="1" fill-rule="nonzero"/><path fill="#e61f93" d="M 27.234375 28.519531 C 27.207031 28.53125 27.183594 28.542969 27.160156 28.554688 C 27.183594 28.542969 27.207031 28.53125 27.234375 28.519531 " fill-opacity="1" fill-rule="nonzero"/><path fill="#e61f93" d="M 34.933594 25.339844 C 34.648438 25.402344 34.351562 25.441406 34.0625 25.476562 C 33.816406 25.511719 33.566406 25.546875 33.3125 25.59375 C 33.5625 25.546875 33.816406 25.511719 34.0625 25.480469 C 34.351562 25.441406 34.648438 25.402344 34.933594 25.339844 C 35.132812 25.300781 35.332031 25.246094 35.519531 25.1875 L 35.53125 25.183594 L 35.519531 25.1875 C 35.324219 25.25 35.128906 25.300781 34.933594 25.339844 " fill-opacity="1" fill-rule="nonzero"/><path fill="#e61f93" d="M 31.734375 26.140625 C 31.707031 26.15625 31.679688 26.167969 31.648438 26.183594 C 31.679688 26.167969 31.707031 26.15625 31.734375 26.140625 " fill-opacity="1" fill-rule="nonzero"/><path fill="#e61f93" d="M 33.304688 25.703125 C 33.15625 25.734375 33.007812 25.765625 32.859375 25.804688 C 32.636719 25.871094 32.414062 25.953125 32.199219 26.046875 C 32.414062 25.953125 32.636719 25.871094 32.863281 25.808594 C 33.007812 25.765625 33.15625 25.734375 33.304688 25.703125 " fill-opacity="1" fill-rule="nonzero"/><path fill="#e61f93" d="M 35.53125 25.183594 L 35.519531 25.1875 C 35.332031 25.246094 35.132812 25.300781 34.933594 25.339844 C 34.648438 25.402344 34.351562 25.441406 34.0625 25.480469 C 33.816406 25.511719 33.5625 25.546875 33.3125 25.59375 C 33.152344 25.625 32.992188 25.65625 32.832031 25.703125 C 32.515625 25.792969 32.214844 25.914062 31.910156 26.058594 C 31.886719 26.070312 31.859375 26.082031 31.835938 26.09375 C 31.800781 26.109375 31.765625 26.125 31.734375 26.140625 C 31.707031 26.15625 31.679688 26.167969 31.648438 26.183594 C 31.554688 26.230469 31.460938 26.277344 31.363281 26.328125 C 31 26.511719 30.605469 26.71875 30.167969 26.949219 C 29.671875 27.210938 29.175781 27.476562 28.683594 27.742188 C 28.207031 28 27.722656 28.257812 27.234375 28.519531 C 27.207031 28.53125 27.183594 28.542969 27.160156 28.554688 C 26.699219 28.800781 26.238281 29.039062 25.773438 29.273438 L 25.59375 29.367188 L 25.707031 29.429688 C 25.746094 29.410156 25.785156 29.390625 25.824219 29.371094 C 27.300781 28.625 28.753906 27.820312 30.21875 27.046875 C 30.617188 26.835938 31.015625 26.625 31.414062 26.421875 C 31.496094 26.378906 31.582031 26.339844 31.664062 26.296875 C 31.839844 26.210938 32.019531 26.125 32.199219 26.046875 C 32.414062 25.953125 32.636719 25.871094 32.859375 25.804688 C 33.007812 25.765625 33.15625 25.734375 33.304688 25.703125 C 33.796875 25.609375 34.300781 25.566406 34.792969 25.476562 C 34.871094 25.460938 34.949219 25.445312 35.019531 25.433594 C 35.199219 25.394531 35.375 25.347656 35.550781 25.289062 C 35.597656 25.273438 35.644531 25.257812 35.691406 25.242188 L 35.753906 25.109375 L 35.53125 25.183594 " fill-opacity="1" fill-rule="nonzero"/><path fill="#e61f93" d="M 33.238281 29.285156 C 32.761719 30.050781 32.175781 30.890625 31.3125 31.164062 C 30.460938 31.433594 29.535156 31.101562 28.664062 30.703125 C 28.0625 30.425781 27.441406 30.117188 26.777344 29.765625 L 26.660156 29.828125 C 27.304688 30.167969 27.957031 30.496094 28.617188 30.800781 C 29.480469 31.195312 30.445312 31.554688 31.34375 31.265625 C 32.234375 30.984375 32.828125 30.144531 33.332031 29.339844 C 33.972656 28.320312 34.574219 27.269531 35.117188 26.1875 C 35.070312 26.199219 35.027344 26.207031 34.980469 26.214844 C 34.480469 27.210938 33.90625 28.222656 33.238281 29.285156 " fill-opacity="1" fill-rule="nonzero"/><path fill="#e61f93" d="M 35.539062 25.320312 C 35.542969 25.308594 35.546875 25.300781 35.550781 25.289062 C 35.382812 25.34375 35.207031 25.390625 35.035156 25.429688 C 35.230469 25.390625 35.40625 25.351562 35.539062 25.320312 " fill-opacity="1" fill-rule="nonzero"/><path fill="#e61f93" d="M 34.792969 25.476562 C 34.300781 25.566406 33.796875 25.609375 33.304688 25.703125 C 33.785156 25.613281 34.277344 25.570312 34.761719 25.484375 C 34.773438 25.480469 34.785156 25.480469 34.792969 25.476562 " fill-opacity="1" fill-rule="nonzero"/><path fill="#e61f93" d="M 31.664062 26.296875 C 31.839844 26.210938 32.019531 26.125 32.199219 26.046875 C 32.019531 26.125 31.839844 26.210938 31.664062 26.296875 " fill-opacity="1" fill-rule="nonzero"/><path fill="#e61f93" d="M 35.550781 25.289062 C 35.375 25.347656 35.199219 25.394531 35.019531 25.433594 L 35.035156 25.429688 C 35.207031 25.390625 35.382812 25.34375 35.550781 25.289062 " fill-opacity="1" fill-rule="nonzero"/><path fill="#e61f93" d="M 36.898438 21.511719 L 36.910156 21.507812 Z M 36.898438 21.511719 " fill-opacity="1" fill-rule="nonzero"/><path fill="#e61f93" d="M 36.9375 21.613281 L 36.941406 21.613281 L 36.941406 21.617188 L 36.914062 21.617188 L 36.941406 21.617188 C 36.984375 21.617188 37.019531 21.617188 37.050781 21.617188 L 37.0625 21.578125 C 37.023438 21.589844 36.984375 21.601562 36.941406 21.613281 L 36.9375 21.613281 " fill-opacity="1" fill-rule="nonzero"/><path fill="#e61f93" d="M 36.917969 21.507812 L 36.910156 21.507812 L 36.898438 21.511719 L 36.90625 21.605469 L 36.835938 21.59375 L 36.90625 21.609375 L 36.914062 21.726562 L 36.941406 21.726562 L 37.023438 21.722656 L 37.050781 21.617188 C 37.019531 21.617188 36.984375 21.617188 36.941406 21.617188 L 36.914062 21.617188 L 36.917969 21.617188 L 36.914062 21.617188 C 36.921875 21.617188 36.929688 21.613281 36.9375 21.613281 L 36.941406 21.613281 C 36.984375 21.601562 37.023438 21.589844 37.0625 21.578125 L 37.089844 21.464844 L 36.917969 21.507812 " fill-opacity="1" fill-rule="nonzero"/><path fill="#e61f93" d="M 36.941406 21.613281 L 36.9375 21.613281 C 36.933594 21.613281 36.925781 21.617188 36.917969 21.617188 L 36.941406 21.617188 L 36.941406 21.613281 " fill-opacity="1" fill-rule="nonzero"/><path fill="#e61f93" d="M 36.914062 21.617188 L 36.917969 21.617188 C 36.925781 21.617188 36.933594 21.613281 36.9375 21.613281 C 36.929688 21.613281 36.921875 21.617188 36.914062 21.617188 " fill-opacity="1" fill-rule="nonzero"/><path fill="#e61f93" d="M 31.765625 26.367188 C 31.785156 26.359375 31.804688 26.347656 31.820312 26.339844 C 31.804688 26.347656 31.785156 26.359375 31.765625 26.367188 " fill-opacity="1" fill-rule="nonzero"/><path fill="#e61f93" d="M 35.242188 25.492188 C 35.265625 25.484375 35.292969 25.480469 35.316406 25.472656 C 35.292969 25.480469 35.265625 25.484375 35.242188 25.492188 " fill-opacity="1" fill-rule="nonzero"/><path fill="#e61f93" d="M 34.976562 25.554688 C 34.992188 25.550781 35.003906 25.546875 35.015625 25.546875 C 35.003906 25.546875 34.992188 25.550781 34.976562 25.554688 C 34.683594 25.613281 34.382812 25.65625 34.09375 25.695312 C 33.851562 25.726562 33.605469 25.761719 33.363281 25.804688 C 33.605469 25.761719 33.851562 25.726562 34.089844 25.695312 C 34.382812 25.65625 34.683594 25.617188 34.976562 25.554688 " fill-opacity="1" fill-rule="nonzero"/><path fill="#e61f93" d="M 31.964844 26.269531 C 31.976562 26.265625 31.988281 26.261719 31.996094 26.257812 C 31.988281 26.261719 31.976562 26.265625 31.964844 26.269531 " fill-opacity="1" fill-rule="nonzero"/><path fill="#e61f93" d="M 27.121094 28.820312 C 27.210938 28.777344 27.296875 28.730469 27.386719 28.683594 C 27.296875 28.730469 27.210938 28.777344 27.121094 28.820312 " fill-opacity="1" fill-rule="nonzero"/><path fill="#e61f93" d="M 27.96875 28.371094 C 28.003906 28.355469 28.035156 28.335938 28.070312 28.316406 C 28.035156 28.335938 28.003906 28.355469 27.96875 28.371094 " fill-opacity="1" fill-rule="nonzero"/><path fill="#e61f93" d="M 30.578125 26.976562 L 30.597656 26.96875 C 30.59375 26.972656 30.585938 26.972656 30.578125 26.976562 " fill-opacity="1" fill-rule="nonzero"/><path fill="#e61f93" d="M 26.40625 29.195312 C 26.496094 29.148438 26.585938 29.101562 26.675781 29.054688 C 26.585938 29.101562 26.496094 29.148438 26.40625 29.195312 " fill-opacity="1" fill-rule="nonzero"/><path fill="#e61f93" d="M 35.019531 25.433594 C 34.949219 25.445312 34.871094 25.460938 34.792969 25.476562 C 34.847656 25.46875 34.902344 25.457031 34.957031 25.449219 C 34.976562 25.441406 35 25.4375 35.019531 25.433594 " fill-opacity="1" fill-rule="nonzero"/><path fill="#e61f93" d="M 31.820312 26.339844 C 31.871094 26.316406 31.917969 26.292969 31.964844 26.269531 C 31.917969 26.292969 31.871094 26.316406 31.820312 26.339844 " fill-opacity="1" fill-rule="nonzero"/><path fill="#e61f93" d="M 33.363281 25.804688 C 33.203125 25.835938 33.042969 25.867188 32.890625 25.910156 C 32.585938 25.996094 32.296875 26.117188 31.996094 26.257812 C 32.292969 26.117188 32.585938 25.996094 32.890625 25.910156 C 33.046875 25.867188 33.203125 25.835938 33.363281 25.804688 " fill-opacity="1" fill-rule="nonzero"/><path fill="#e61f93" d="M 30.269531 27.140625 C 30.375 27.085938 30.476562 27.03125 30.578125 26.976562 C 30.46875 27.035156 30.363281 27.089844 30.269531 27.140625 C 29.769531 27.40625 29.269531 27.671875 28.773438 27.941406 C 28.539062 28.066406 28.304688 28.191406 28.070312 28.316406 C 28.308594 28.191406 28.550781 28.0625 28.785156 27.933594 C 29.28125 27.667969 29.773438 27.402344 30.269531 27.140625 " fill-opacity="1" fill-rule="nonzero"/><path fill="#e61f93" d="M 27.386719 28.683594 C 27.582031 28.578125 27.777344 28.476562 27.96875 28.371094 C 27.777344 28.476562 27.582031 28.578125 27.386719 28.683594 " fill-opacity="1" fill-rule="nonzero"/><path fill="#e61f93" d="M 31.765625 26.367188 C 31.667969 26.417969 31.566406 26.46875 31.464844 26.519531 C 31.160156 26.675781 30.863281 26.828125 30.597656 26.96875 C 30.90625 26.804688 31.191406 26.660156 31.464844 26.519531 C 31.566406 26.46875 31.664062 26.417969 31.765625 26.367188 " fill-opacity="1" fill-rule="nonzero"/><path fill="#e61f93" d="M 26.675781 29.054688 C 26.824219 28.976562 26.972656 28.898438 27.121094 28.820312 C 26.972656 28.898438 26.824219 28.976562 26.675781 29.054688 " fill-opacity="1" fill-rule="nonzero"/><path fill="#e61f93" d="M 35.015625 25.546875 C 35.09375 25.527344 35.167969 25.511719 35.242188 25.492188 C 35.167969 25.511719 35.09375 25.527344 35.015625 25.546875 " fill-opacity="1" fill-rule="nonzero"/><path fill="#e61f93" d="M 34.957031 25.449219 C 34.980469 25.441406 35.007812 25.433594 35.035156 25.429688 L 35.019531 25.433594 C 35 25.4375 34.976562 25.441406 34.957031 25.449219 C 34.902344 25.457031 34.847656 25.46875 34.792969 25.476562 C 34.785156 25.480469 34.773438 25.480469 34.761719 25.484375 C 34.824219 25.472656 34.890625 25.460938 34.957031 25.449219 " fill-opacity="1" fill-rule="nonzero"/><path fill="#e61f93" d="M 24.519531 25.457031 C 24.480469 25.46875 24.441406 25.480469 24.402344 25.492188 C 24.441406 25.480469 24.480469 25.46875 24.519531 25.457031 " fill-opacity="1" fill-rule="nonzero"/><path fill="#e61f93" d="M 22.082031 26.238281 C 22.046875 26.25 22.011719 26.265625 21.976562 26.277344 C 22.011719 26.265625 22.046875 26.25 22.082031 26.238281 " fill-opacity="1" fill-rule="nonzero"/><path fill="#e61f93" d="M 21.828125 26.335938 C 21.796875 26.347656 21.765625 26.359375 21.734375 26.371094 C 21.765625 26.359375 21.796875 26.347656 21.828125 26.335938 " fill-opacity="1" fill-rule="nonzero"/><path fill="#e61f93" d="M 22.863281 25.964844 C 22.824219 25.980469 22.785156 25.992188 22.746094 26.003906 C 22.785156 25.992188 22.824219 25.980469 22.863281 25.964844 " fill-opacity="1" fill-rule="nonzero"/><path fill="#e61f93" d="M 22.335938 26.144531 C 22.300781 26.160156 22.265625 26.171875 22.226562 26.183594 C 22.265625 26.171875 22.300781 26.160156 22.335938 26.144531 " fill-opacity="1" fill-rule="nonzero"/><path fill="#e61f93" d="M 24.796875 25.378906 C 24.761719 25.390625 24.726562 25.398438 24.691406 25.410156 C 24.726562 25.398438 24.761719 25.390625 24.796875 25.378906 " fill-opacity="1" fill-rule="nonzero"/><path fill="#e61f93" d="M 24.238281 25.539062 C 24.199219 25.550781 24.15625 25.5625 24.117188 25.578125 C 24.15625 25.5625 24.199219 25.550781 24.238281 25.539062 " fill-opacity="1" fill-rule="nonzero"/><path fill="#e61f93" d="M 22.601562 26.054688 C 22.5625 26.066406 22.523438 26.082031 22.484375 26.09375 C 22.523438 26.082031 22.5625 26.066406 22.601562 26.054688 " fill-opacity="1" fill-rule="nonzero"/><path fill="#e61f93" d="M 23.957031 25.625 C 23.917969 25.636719 23.878906 25.648438 23.835938 25.660156 C 23.878906 25.648438 23.917969 25.636719 23.957031 25.625 " fill-opacity="1" fill-rule="nonzero"/><path fill="#e61f93" d="M 25.085938 25.296875 C 25.050781 25.308594 25.015625 25.316406 24.976562 25.328125 C 25.015625 25.316406 25.050781 25.308594 25.085938 25.296875 " fill-opacity="1" fill-rule="nonzero"/><path fill="#e61f93" d="M 21.574219 26.433594 C 21.550781 26.445312 21.523438 26.457031 21.496094 26.464844 C 21.523438 26.457031 21.550781 26.445312 21.574219 26.433594 " fill-opacity="1" fill-rule="nonzero"/><path fill="#e61f93" d="M 23.679688 25.707031 C 23.640625 25.71875 23.597656 25.730469 23.558594 25.746094 C 23.597656 25.730469 23.640625 25.71875 23.679688 25.707031 " fill-opacity="1" fill-rule="nonzero"/><path fill="#e61f93" d="M 25.355469 25.222656 C 25.328125 25.226562 25.304688 25.234375 25.28125 25.242188 C 25.304688 25.234375 25.328125 25.226562 25.355469 25.222656 " fill-opacity="1" fill-rule="nonzero"/><path fill="#e61f93" d="M 23.132812 25.878906 C 23.09375 25.890625 23.050781 25.902344 23.011719 25.917969 C 23.050781 25.902344 23.09375 25.890625 23.132812 25.878906 " fill-opacity="1" fill-rule="nonzero"/><path fill="#e61f93" d="M 23.40625 25.792969 C 23.363281 25.804688 23.324219 25.816406 23.28125 25.832031 C 23.324219 25.816406 23.363281 25.804688 23.40625 25.792969 " fill-opacity="1" fill-rule="nonzero"/><path fill="#e61f93" d="M 16.640625 24.769531 C 16.402344 24.707031 16.160156 24.628906 15.921875 24.53125 C 16.160156 24.628906 16.402344 24.707031 16.640625 24.769531 " fill-opacity="1" fill-rule="nonzero"/><path fill="#e61f93" d="M 23.835938 25.660156 C 23.785156 25.675781 23.730469 25.691406 23.679688 25.707031 C 23.730469 25.691406 23.785156 25.675781 23.835938 25.660156 " fill-opacity="1" fill-rule="nonzero"/><path fill="#e61f93" d="M 25.28125 25.242188 C 25.214844 25.261719 25.148438 25.277344 25.085938 25.296875 C 25.148438 25.277344 25.214844 25.261719 25.28125 25.242188 " fill-opacity="1" fill-rule="nonzero"/><path fill="#e61f93" d="M 24.976562 25.328125 C 24.917969 25.34375 24.859375 25.363281 24.796875 25.378906 C 24.859375 25.363281 24.917969 25.34375 24.976562 25.328125 " fill-opacity="1" fill-rule="nonzero"/><path fill="#e61f93" d="M 24.117188 25.578125 C 24.0625 25.59375 24.011719 25.609375 23.957031 25.625 C 24.011719 25.609375 24.0625 25.59375 24.117188 25.578125 " fill-opacity="1" fill-rule="nonzero"/><path fill="#e61f93" d="M 24.402344 25.492188 C 24.347656 25.507812 24.292969 25.523438 24.238281 25.539062 C 24.292969 25.523438 24.347656 25.507812 24.402344 25.492188 " fill-opacity="1" fill-rule="nonzero"/><path fill="#e61f93" d="M 24.691406 25.410156 C 24.632812 25.425781 24.574219 25.441406 24.519531 25.457031 C 24.574219 25.441406 24.632812 25.425781 24.691406 25.410156 " fill-opacity="1" fill-rule="nonzero"/><path fill="#e61f93" d="M 21.976562 26.277344 C 21.925781 26.296875 21.878906 26.316406 21.828125 26.335938 C 21.878906 26.316406 21.925781 26.296875 21.976562 26.277344 " fill-opacity="1" fill-rule="nonzero"/><path fill="#e61f93" d="M 21.734375 26.371094 C 21.679688 26.390625 21.628906 26.414062 21.574219 26.433594 C 21.628906 26.414062 21.679688 26.390625 21.734375 26.371094 " fill-opacity="1" fill-rule="nonzero"/><path fill="#e61f93" d="M 21.496094 26.464844 C 21.421875 26.5 21.34375 26.53125 21.269531 26.5625 C 21.34375 26.53125 21.421875 26.5 21.496094 26.464844 " fill-opacity="1" fill-rule="nonzero"/><path fill="#e61f93" d="M 23.28125 25.832031 C 23.234375 25.847656 23.183594 25.863281 23.132812 25.878906 C 23.183594 25.863281 23.234375 25.847656 23.28125 25.832031 " fill-opacity="1" fill-rule="nonzero"/><path fill="#e61f93" d="M 22.226562 26.183594 C 22.179688 26.203125 22.128906 26.21875 22.082031 26.238281 C 22.128906 26.21875 22.179688 26.203125 22.226562 26.183594 " fill-opacity="1" fill-rule="nonzero"/><path fill="#e61f93" d="M 23.011719 25.917969 C 22.960938 25.933594 22.914062 25.949219 22.863281 25.964844 C 22.914062 25.949219 22.960938 25.933594 23.011719 25.917969 " fill-opacity="1" fill-rule="nonzero"/><path fill="#e61f93" d="M 22.746094 26.003906 C 22.695312 26.019531 22.648438 26.039062 22.601562 26.054688 C 22.648438 26.039062 22.695312 26.019531 22.746094 26.003906 " fill-opacity="1" fill-rule="nonzero"/><path fill="#e61f93" d="M 23.558594 25.746094 C 23.507812 25.761719 23.457031 25.777344 23.40625 25.792969 C 23.457031 25.777344 23.507812 25.761719 23.558594 25.746094 " fill-opacity="1" fill-rule="nonzero"/><path fill="#e61f93" d="M 22.484375 26.09375 C 22.433594 26.109375 22.386719 26.128906 22.335938 26.144531 C 22.386719 26.128906 22.433594 26.109375 22.484375 26.09375 " fill-opacity="1" fill-rule="nonzero"/><path fill="#ffffff" d="M 26.777344 29.765625 L 31.9375 27.039062 C 31.941406 27.035156 32.496094 26.753906 32.867188 26.640625 C 33.230469 26.53125 33.441406 26.503906 33.441406 26.503906 C 33.449219 26.503906 33.457031 26.503906 33.464844 26.5 C 33.511719 26.492188 34.296875 26.351562 34.980469 26.214844 C 35.109375 25.964844 35.230469 25.714844 35.351562 25.464844 C 35.339844 25.464844 35.328125 25.46875 35.316406 25.472656 C 35.292969 25.480469 35.265625 25.484375 35.242188 25.492188 C 35.167969 25.511719 35.09375 25.527344 35.015625 25.546875 C 35.003906 25.546875 34.992188 25.550781 34.976562 25.554688 C 34.683594 25.617188 34.382812 25.65625 34.089844 25.695312 C 33.851562 25.726562 33.605469 25.761719 33.363281 25.804688 C 33.203125 25.835938 33.046875 25.867188 32.890625 25.910156 C 32.585938 25.996094 32.292969 26.117188 31.996094 26.257812 C 31.988281 26.261719 31.976562 26.265625 31.964844 26.269531 C 31.917969 26.292969 31.871094 26.316406 31.820312 26.339844 C 31.804688 26.347656 31.785156 26.359375 31.765625 26.367188 C 31.664062 26.417969 31.566406 26.46875 31.464844 26.519531 C 31.191406 26.660156 30.90625 26.804688 30.597656 26.96875 L 30.578125 26.976562 C 30.476562 27.03125 30.375 27.085938 30.269531 27.140625 C 29.773438 27.402344 29.28125 27.667969 28.785156 27.933594 C 28.550781 28.0625 28.308594 28.191406 28.070312 28.316406 C 28.035156 28.335938 28.003906 28.355469 27.96875 28.371094 C 27.777344 28.476562 27.582031 28.578125 27.386719 28.683594 C 27.296875 28.730469 27.210938 28.777344 27.121094 28.820312 C 26.972656 28.898438 26.824219 28.976562 26.675781 29.054688 C 26.585938 29.101562 26.496094 29.148438 26.40625 29.195312 C 26.289062 29.253906 26.171875 29.316406 26.054688 29.375 C 26.300781 29.511719 26.542969 29.640625 26.777344 29.765625 " fill-opacity="1" fill-rule="nonzero"/><path fill="#ffffff" d="M 17.507812 24.945312 C 17.910156 25.019531 18.324219 25.09375 18.722656 25.226562 C 19.21875 25.394531 19.667969 25.640625 20.160156 25.917969 C 20.515625 26.121094 20.878906 26.332031 21.269531 26.5625 C 21.34375 26.53125 21.421875 26.5 21.496094 26.464844 C 21.523438 26.457031 21.550781 26.445312 21.574219 26.433594 C 21.628906 26.414062 21.679688 26.390625 21.734375 26.371094 C 21.765625 26.359375 21.796875 26.347656 21.828125 26.335938 C 21.878906 26.316406 21.925781 26.296875 21.976562 26.277344 C 22.011719 26.265625 22.046875 26.25 22.082031 26.238281 C 22.128906 26.21875 22.179688 26.203125 22.226562 26.183594 C 22.265625 26.171875 22.300781 26.160156 22.335938 26.144531 C 22.386719 26.128906 22.433594 26.109375 22.484375 26.09375 C 22.523438 26.082031 22.5625 26.066406 22.601562 26.054688 C 22.648438 26.039062 22.695312 26.019531 22.746094 26.003906 C 22.785156 25.992188 22.824219 25.980469 22.863281 25.964844 C 22.914062 25.949219 22.960938 25.933594 23.011719 25.917969 C 23.050781 25.902344 23.09375 25.890625 23.132812 25.878906 C 23.183594 25.863281 23.234375 25.847656 23.28125 25.832031 C 23.324219 25.816406 23.363281 25.804688 23.40625 25.792969 C 23.457031 25.777344 23.507812 25.761719 23.558594 25.746094 C 23.597656 25.730469 23.640625 25.71875 23.679688 25.707031 C 23.730469 25.691406 23.785156 25.675781 23.835938 25.660156 C 23.878906 25.648438 23.917969 25.636719 23.957031 25.625 C 24.011719 25.609375 24.0625 25.59375 24.117188 25.578125 C 24.15625 25.5625 24.199219 25.550781 24.238281 25.539062 C 24.292969 25.523438 24.347656 25.507812 24.402344 25.492188 C 24.441406 25.480469 24.480469 25.46875 24.519531 25.457031 C 24.574219 25.441406 24.632812 25.425781 24.691406 25.410156 C 24.726562 25.398438 24.761719 25.390625 24.796875 25.378906 C 24.859375 25.363281 24.917969 25.34375 24.976562 25.328125 C 25.015625 25.316406 25.050781 25.308594 25.085938 25.296875 C 25.148438 25.277344 25.214844 25.261719 25.28125 25.242188 C 25.304688 25.234375 25.328125 25.226562 25.355469 25.222656 C 25.386719 25.210938 25.417969 25.203125 25.449219 25.195312 C 25.082031 25.054688 24.707031 24.910156 24.335938 24.761719 C 23.3125 25.0625 21.960938 25.480469 21.328125 25.773438 C 20.847656 25.480469 19.570312 24.722656 18.878906 24.496094 C 18.546875 24.386719 18.136719 24.308594 17.703125 24.21875 C 17.019531 24.085938 16.242188 23.929688 15.570312 23.640625 C 15.121094 23.445312 14.890625 23.28125 14.789062 23.191406 C 14.734375 23.144531 14.679688 23.101562 14.621094 23.0625 C 14.597656 23.050781 14.582031 23.039062 14.582031 23.039062 L 14.226562 23.210938 L 14.261719 23.429688 C 14.300781 23.574219 14.476562 23.703125 14.617188 23.804688 L 14.636719 23.820312 C 15.027344 24.105469 15.460938 24.347656 15.921875 24.53125 C 16.160156 24.628906 16.402344 24.707031 16.640625 24.769531 C 16.925781 24.84375 17.222656 24.894531 17.507812 24.945312 " fill-opacity="1" fill-rule="nonzero"/><path fill="#ffffff" d="M 35.539062 25.320312 C 35.523438 25.351562 35.503906 25.386719 35.488281 25.421875 C 35.429688 25.4375 35.375 25.457031 35.316406 25.472656 C 35.292969 25.480469 35.265625 25.484375 35.242188 25.492188 C 35.167969 25.511719 35.09375 25.527344 35.015625 25.546875 C 35.003906 25.546875 34.992188 25.550781 34.976562 25.554688 C 34.683594 25.613281 34.382812 25.65625 34.09375 25.691406 C 33.851562 25.726562 33.605469 25.757812 33.363281 25.804688 C 33.203125 25.835938 33.042969 25.867188 32.890625 25.910156 C 32.585938 25.996094 32.292969 26.117188 31.996094 26.257812 C 31.984375 26.261719 31.976562 26.265625 31.964844 26.269531 C 31.917969 26.292969 31.871094 26.316406 31.820312 26.339844 C 31.804688 26.347656 31.785156 26.359375 31.765625 26.367188 C 31.667969 26.417969 31.566406 26.464844 31.464844 26.519531 C 31.160156 26.675781 30.863281 26.828125 30.597656 26.96875 C 30.59375 26.972656 30.585938 26.972656 30.578125 26.980469 C 30.46875 27.035156 30.363281 27.089844 30.269531 27.140625 C 29.769531 27.40625 29.269531 27.675781 28.769531 27.941406 C 28.539062 28.066406 28.304688 28.191406 28.070312 28.316406 C 28.035156 28.335938 28.003906 28.355469 27.96875 28.371094 C 27.777344 28.476562 27.582031 28.578125 27.386719 28.683594 C 27.296875 28.730469 27.210938 28.777344 27.121094 28.820312 C 26.972656 28.898438 26.824219 28.980469 26.675781 29.054688 C 26.585938 29.101562 26.496094 29.148438 26.40625 29.195312 C 26.25 29.273438 26.09375 29.355469 25.9375 29.433594 C 25.914062 29.417969 25.886719 29.40625 25.859375 29.390625 L 25.824219 29.371094 C 27.300781 28.625 28.753906 27.820312 30.21875 27.046875 C 30.613281 26.835938 31.015625 26.628906 31.414062 26.421875 C 31.496094 26.382812 31.582031 26.339844 31.664062 26.296875 C 31.839844 26.210938 32.019531 26.125 32.199219 26.046875 C 32.414062 25.953125 32.636719 25.871094 32.863281 25.808594 C 33.007812 25.765625 33.152344 25.734375 33.304688 25.707031 C 33.785156 25.613281 34.277344 25.570312 34.761719 25.484375 C 34.828125 25.472656 34.890625 25.460938 34.957031 25.449219 C 34.984375 25.441406 35.007812 25.4375 35.035156 25.429688 C 35.230469 25.390625 35.40625 25.351562 35.539062 25.320312 " fill-opacity="1" fill-rule="nonzero"/><path fill="#ffffff" d="M 26.054688 29.375 C 26.171875 29.316406 26.289062 29.253906 26.40625 29.195312 C 26.25 29.273438 26.09375 29.355469 25.9375 29.433594 C 26.179688 29.566406 26.417969 29.699219 26.660156 29.828125 L 26.777344 29.765625 C 26.542969 29.640625 26.300781 29.511719 26.054688 29.375 " fill-opacity="1" fill-rule="nonzero"/><path fill="#ffffff" d="M 35.351562 25.464844 C 35.230469 25.714844 35.109375 25.964844 34.980469 26.214844 C 35.027344 26.207031 35.070312 26.199219 35.117188 26.1875 C 35.242188 25.933594 35.367188 25.679688 35.488281 25.421875 C 35.433594 25.4375 35.375 25.457031 35.316406 25.472656 C 35.328125 25.46875 35.339844 25.464844 35.351562 25.464844 " fill-opacity="1" fill-rule="nonzero"/><path fill="#ffffff" d="M 25.449219 25.195312 C 25.417969 25.203125 25.386719 25.210938 25.355469 25.222656 C 25.433594 25.199219 25.515625 25.175781 25.597656 25.152344 L 25.621094 25.144531 C 25.246094 25 24.871094 24.855469 24.503906 24.714844 C 24.449219 24.730469 24.390625 24.746094 24.335938 24.761719 C 24.707031 24.910156 25.082031 25.054688 25.449219 25.195312 " fill-opacity="1" fill-rule="nonzero"/><path fill="#ffffff" d="M 14.160156 23.460938 C 14.160156 23.46875 14.164062 23.476562 14.167969 23.484375 L 14.261719 23.425781 C 14.246094 23.359375 14.253906 23.292969 14.289062 23.242188 C 14.328125 23.183594 14.398438 23.140625 14.472656 23.128906 C 14.554688 23.117188 14.558594 23.117188 14.574219 23.109375 C 14.582031 23.105469 14.617188 23.089844 14.628906 23.070312 C 14.558594 23.0625 14.558594 23.019531 14.476562 23.019531 C 14.453125 23.019531 14.386719 23.03125 14.320312 23.066406 C 14.195312 23.140625 14.109375 23.28125 14.160156 23.460938 " fill-opacity="1" fill-rule="nonzero"/><path fill="#ffffff" d="M 15.820312 24.546875 C 15.632812 24.484375 15.449219 24.414062 15.269531 24.335938 C 15.242188 24.328125 15.21875 24.316406 15.195312 24.304688 C 15.386719 24.410156 15.582031 24.503906 15.78125 24.589844 C 15.789062 24.578125 15.796875 24.566406 15.804688 24.554688 L 15.820312 24.546875 " fill-opacity="1" fill-rule="nonzero"/><path fill="#ffffff" d="M 18.6875 25.332031 C 19.1875 25.496094 19.648438 25.753906 20.105469 26.015625 C 20.492188 26.234375 20.878906 26.457031 21.261719 26.683594 C 22.519531 26.128906 24.164062 25.667969 25.792969 25.210938 C 25.753906 25.195312 25.71875 25.183594 25.683594 25.167969 C 24.222656 25.574219 21.980469 26.246094 21.503906 26.535156 C 21.445312 26.570312 21.375 26.589844 21.308594 26.589844 C 21.238281 26.589844 21.167969 26.570312 21.105469 26.53125 C 21.089844 26.519531 19.398438 25.464844 18.644531 25.21875 C 18.355469 25.125 17.964844 25.046875 17.554688 24.964844 C 17.007812 24.859375 16.40625 24.738281 15.820312 24.546875 L 15.804688 24.554688 C 15.796875 24.566406 15.789062 24.578125 15.78125 24.589844 C 15.816406 24.605469 15.847656 24.621094 15.882812 24.632812 C 16.121094 24.730469 16.363281 24.808594 16.613281 24.875 C 17.300781 25.050781 18.015625 25.105469 18.6875 25.332031 " fill-opacity="1" fill-rule="nonzero"/><path fill="#ffffff" d="M 15.820312 24.546875 C 15.847656 24.523438 15.886719 24.519531 15.921875 24.53125 C 15.460938 24.347656 15.027344 24.105469 14.636719 23.820312 L 14.617188 23.804688 C 14.476562 23.703125 14.300781 23.574219 14.261719 23.429688 L 14.261719 23.425781 L 14.167969 23.484375 C 14.230469 23.660156 14.417969 23.792969 14.574219 23.90625 C 14.769531 24.050781 14.980469 24.183594 15.195312 24.304688 C 15.21875 24.316406 15.242188 24.328125 15.269531 24.335938 C 15.449219 24.414062 15.632812 24.484375 15.820312 24.546875 " fill-opacity="1" fill-rule="nonzero"/><path fill="#ffffff" d="M 25.355469 25.222656 C 25.328125 25.226562 25.304688 25.234375 25.28125 25.242188 C 25.214844 25.261719 25.148438 25.277344 25.085938 25.296875 C 25.050781 25.308594 25.015625 25.316406 24.976562 25.328125 C 24.917969 25.34375 24.859375 25.363281 24.796875 25.378906 C 24.761719 25.390625 24.726562 25.398438 24.691406 25.410156 C 24.632812 25.425781 24.574219 25.441406 24.519531 25.457031 C 24.480469 25.46875 24.441406 25.480469 24.402344 25.492188 C 24.347656 25.507812 24.292969 25.523438 24.238281 25.539062 C 24.199219 25.550781 24.15625 25.5625 24.117188 25.578125 C 24.0625 25.59375 24.011719 25.609375 23.957031 25.625 C 23.917969 25.636719 23.878906 25.648438 23.835938 25.660156 C 23.785156 25.675781 23.730469 25.691406 23.679688 25.707031 C 23.640625 25.71875 23.597656 25.730469 23.558594 25.746094 C 23.507812 25.761719 23.457031 25.777344 23.40625 25.792969 C 23.363281 25.804688 23.324219 25.816406 23.28125 25.832031 C 23.234375 25.847656 23.183594 25.863281 23.132812 25.878906 C 23.09375 25.890625 23.050781 25.902344 23.011719 25.917969 C 22.960938 25.933594 22.914062 25.949219 22.863281 25.964844 C 22.824219 25.980469 22.785156 25.992188 22.746094 26.003906 C 22.695312 26.019531 22.648438 26.039062 22.601562 26.054688 C 22.5625 26.066406 22.523438 26.082031 22.484375 26.09375 C 22.433594 26.109375 22.386719 26.128906 22.335938 26.144531 C 22.300781 26.160156 22.265625 26.171875 22.226562 26.183594 C 22.179688 26.203125 22.128906 26.21875 22.082031 26.238281 C 22.046875 26.25 22.011719 26.265625 21.976562 26.277344 C 21.925781 26.296875 21.878906 26.316406 21.828125 26.335938 C 21.796875 26.347656 21.765625 26.359375 21.734375 26.371094 C 21.679688 26.390625 21.628906 26.414062 21.574219 26.433594 C 21.550781 26.445312 21.523438 26.457031 21.496094 26.464844 C 21.421875 26.5 21.34375 26.53125 21.269531 26.5625 C 20.878906 26.332031 20.515625 26.121094 20.160156 25.917969 C 19.667969 25.640625 19.21875 25.394531 18.722656 25.226562 C 18.324219 25.09375 17.910156 25.019531 17.507812 24.945312 C 17.222656 24.894531 16.925781 24.84375 16.640625 24.769531 C 16.402344 24.707031 16.160156 24.628906 15.921875 24.53125 C 15.886719 24.519531 15.847656 24.523438 15.820312 24.546875 C 16.40625 24.738281 17.007812 24.859375 17.554688 24.964844 C 17.964844 25.046875 18.355469 25.125 18.644531 25.21875 C 19.398438 25.464844 21.089844 26.519531 21.105469 26.53125 C 21.167969 26.570312 21.238281 26.589844 21.308594 26.589844 C 21.375 26.589844 21.445312 26.570312 21.503906 26.535156 C 21.980469 26.246094 24.222656 25.574219 25.683594 25.167969 C 25.664062 25.160156 25.644531 25.152344 25.621094 25.144531 L 25.597656 25.152344 C 25.515625 25.175781 25.433594 25.199219 25.355469 25.222656 " fill-opacity="1" fill-rule="nonzero"/><g fill="#6a35aa" fill-opacity="1"><g transform="translate(58.520863, 27.264469)"><g><path d="M 12.8125 -19.171875 C 14 -19.171875 15.054688 -18.894531 15.984375 -18.34375 C 16.921875 -17.800781 17.644531 -17.050781 18.15625 -16.09375 C 18.675781 -15.132812 18.9375 -14.0625 18.9375 -12.875 L 18.9375 -12.515625 C 18.9375 -11.316406 18.675781 -10.234375 18.15625 -9.265625 C 17.644531 -8.304688 16.921875 -7.550781 15.984375 -7 C 15.054688 -6.457031 14 -6.1875 12.8125 -6.1875 L 8.21875 -6.1875 L 8.21875 0 L 2.0625 0 L 2.0625 -19.171875 Z M 8.21875 -10.671875 L 10.75 -10.671875 C 11.40625 -10.671875 11.894531 -10.835938 12.21875 -11.171875 C 12.539062 -11.503906 12.703125 -11.957031 12.703125 -12.53125 L 12.703125 -12.765625 C 12.703125 -13.359375 12.539062 -13.816406 12.21875 -14.140625 C 11.894531 -14.460938 11.40625 -14.625 10.75 -14.625 L 8.21875 -14.625 Z M 8.21875 -10.671875 "/></g></g></g><g fill="#6a35aa" fill-opacity="1"><g transform="translate(78.617576, 27.264469)"><g><path d="M 20.25 -13.28125 C 20.25 -12.113281 19.929688 -11.054688 19.296875 -10.109375 C 18.671875 -9.160156 17.753906 -8.46875 16.546875 -8.03125 L 20.8125 0 L 13.90625 0 L 10.5 -7 L 8.21875 -7 L 8.21875 0 L 2.0625 0 L 2.0625 -19.171875 L 13.796875 -19.171875 C 15.171875 -19.171875 16.34375 -18.90625 17.3125 -18.375 C 18.289062 -17.84375 19.023438 -17.125 19.515625 -16.21875 C 20.003906 -15.320312 20.25 -14.34375 20.25 -13.28125 Z M 13.984375 -13.03125 C 13.984375 -13.539062 13.816406 -13.960938 13.484375 -14.296875 C 13.148438 -14.628906 12.742188 -14.796875 12.265625 -14.796875 L 8.21875 -14.796875 L 8.21875 -11.25 L 12.265625 -11.25 C 12.742188 -11.25 13.148438 -11.421875 13.484375 -11.765625 C 13.816406 -12.109375 13.984375 -12.53125 13.984375 -13.03125 Z M 13.984375 -13.03125 "/></g></g></g><g fill="#6a35aa" fill-opacity="1"><g transform="translate(100.273044, 27.264469)"><g><path d="M 2.0625 -19.171875 L 18.640625 -19.171875 L 18.640625 -14.578125 L 8.21875 -14.578125 L 8.21875 -11.921875 L 17.140625 -11.921875 L 17.140625 -7.515625 L 8.21875 -7.515625 L 8.21875 -4.59375 L 18.828125 -4.59375 L 18.828125 0 L 2.0625 0 Z M 2.0625 -19.171875 "/></g></g></g><g fill="#6a35aa" fill-opacity="1"><g transform="translate(120.369758, 27.264469)"><g><path d="M 2.0625 -19.171875 L 17.546875 -19.171875 L 17.546875 -14.578125 L 8.21875 -14.578125 L 8.21875 -11.28125 L 16.234375 -11.28125 L 16.234375 -6.875 L 8.21875 -6.875 L 8.21875 0 L 2.0625 0 Z M 2.0625 -19.171875 "/></g></g></g><g fill="#6a35aa" fill-opacity="1"><g transform="translate(138.935554, 27.264469)"><g><path d="M 2.0625 -19.171875 L 18.640625 -19.171875 L 18.640625 -14.578125 L 8.21875 -14.578125 L 8.21875 -11.921875 L 17.140625 -11.921875 L 17.140625 -7.515625 L 8.21875 -7.515625 L 8.21875 -4.59375 L 18.828125 -4.59375 L 18.828125 0 L 2.0625 0 Z M 2.0625 -19.171875 "/></g></g></g><g fill="#6a35aa" fill-opacity="1"><g transform="translate(159.032267, 27.264469)"><g><path d="M 18.53125 0 L 18.53125 -6.90625 C 18.53125 -7.757812 18.5625 -8.632812 18.625 -9.53125 C 18.6875 -10.4375 18.753906 -11.195312 18.828125 -11.8125 C 18.898438 -12.425781 18.945312 -12.816406 18.96875 -12.984375 L 18.859375 -12.984375 L 15.328125 0 L 10.5 0 L 6.9375 -12.953125 L 6.828125 -12.953125 C 6.847656 -12.785156 6.898438 -12.398438 6.984375 -11.796875 C 7.066406 -11.191406 7.144531 -10.4375 7.21875 -9.53125 C 7.289062 -8.632812 7.328125 -7.757812 7.328125 -6.90625 L 7.328125 0 L 1.671875 0 L 1.671875 -19.171875 L 10.359375 -19.171875 L 13.265625 -8.109375 L 13.375 -8.109375 L 16.234375 -19.171875 L 24.625 -19.171875 L 24.625 0 Z M 18.53125 0 "/></g></g></g><g fill="#000000" fill-opacity="1"><g transform="translate(58.520863, 44.800022)"><g><path d="M 6.875 -2.328125 L 2.03125 -2.328125 L 0.984375 0 L 0.03125 0 L 4 -8.6875 L 4.90625 -8.6875 L 8.875 0 L 7.90625 0 Z M 6.53125 -3.0625 L 4.453125 -7.734375 L 2.359375 -3.0625 Z M 6.53125 -3.0625 "/></g></g></g><g fill="#000000" fill-opacity="1"><g transform="translate(67.426192, 44.800022)"><g><path d="M 4.5625 -6.578125 C 5.375 -6.578125 6.019531 -6.335938 6.5 -5.859375 C 6.988281 -5.390625 7.234375 -4.695312 7.234375 -3.78125 L 7.234375 0 L 6.359375 0 L 6.359375 -3.703125 C 6.359375 -4.378906 6.1875 -4.894531 5.84375 -5.25 C 5.507812 -5.601562 5.023438 -5.78125 4.390625 -5.78125 C 3.691406 -5.78125 3.132812 -5.570312 2.71875 -5.15625 C 2.3125 -4.738281 2.109375 -4.160156 2.109375 -3.421875 L 2.109375 0 L 1.234375 0 L 1.234375 -6.53125 L 2.078125 -6.53125 L 2.078125 -5.328125 C 2.316406 -5.722656 2.648438 -6.03125 3.078125 -6.25 C 3.503906 -6.46875 4 -6.578125 4.5625 -6.578125 Z M 4.5625 -6.578125 "/></g></g></g><g fill="#000000" fill-opacity="1"><g transform="translate(75.834703, 44.800022)"><g><path d="M 4.671875 -0.390625 C 4.503906 -0.242188 4.296875 -0.128906 4.046875 -0.046875 C 3.804688 0.0234375 3.554688 0.0625 3.296875 0.0625 C 2.679688 0.0625 2.207031 -0.101562 1.875 -0.4375 C 1.539062 -0.769531 1.375 -1.238281 1.375 -1.84375 L 1.375 -5.78125 L 0.21875 -5.78125 L 0.21875 -6.53125 L 1.375 -6.53125 L 1.375 -7.96875 L 2.265625 -7.96875 L 2.265625 -6.53125 L 4.25 -6.53125 L 4.25 -5.78125 L 2.265625 -5.78125 L 2.265625 -1.890625 C 2.265625 -1.492188 2.359375 -1.195312 2.546875 -1 C 2.742188 -0.800781 3.023438 -0.703125 3.390625 -0.703125 C 3.578125 -0.703125 3.753906 -0.726562 3.921875 -0.78125 C 4.085938 -0.84375 4.234375 -0.925781 4.359375 -1.03125 Z M 4.671875 -0.390625 "/></g></g></g><g fill="#000000" fill-opacity="1"><g transform="translate(80.877333, 44.800022)"><g><path d="M 1.234375 -6.53125 L 2.109375 -6.53125 L 2.109375 0 L 1.234375 0 Z M 1.6875 -7.96875 C 1.5 -7.96875 1.34375 -8.023438 1.21875 -8.140625 C 1.09375 -8.265625 1.03125 -8.414062 1.03125 -8.59375 C 1.03125 -8.757812 1.09375 -8.90625 1.21875 -9.03125 C 1.34375 -9.15625 1.5 -9.21875 1.6875 -9.21875 C 1.863281 -9.21875 2.015625 -9.15625 2.140625 -9.03125 C 2.265625 -8.914062 2.328125 -8.773438 2.328125 -8.609375 C 2.328125 -8.421875 2.265625 -8.265625 2.140625 -8.140625 C 2.015625 -8.023438 1.863281 -7.96875 1.6875 -7.96875 Z M 1.6875 -7.96875 "/></g></g></g><g fill="#000000" fill-opacity="1"><g transform="translate(84.218387, 44.800022)"><g><path d="M 0.75 -3.75 L 4 -3.75 L 4 -2.984375 L 0.75 -2.984375 Z M 0.75 -3.75 "/></g></g></g><g fill="#000000" fill-opacity="1"><g transform="translate(88.962924, 44.800022)"><g><path d="M 3.390625 -8.53125 C 3.003906 -8.53125 2.710938 -8.425781 2.515625 -8.21875 C 2.328125 -8.007812 2.234375 -7.703125 2.234375 -7.296875 L 2.234375 -6.53125 L 4.25 -6.53125 L 4.25 -5.78125 L 2.265625 -5.78125 L 2.265625 0 L 1.375 0 L 1.375 -5.78125 L 0.21875 -5.78125 L 0.21875 -6.53125 L 1.375 -6.53125 L 1.375 -7.34375 C 1.375 -7.9375 1.546875 -8.40625 1.890625 -8.75 C 2.234375 -9.101562 2.722656 -9.28125 3.359375 -9.28125 C 3.597656 -9.28125 3.832031 -9.242188 4.0625 -9.171875 C 4.300781 -9.097656 4.5 -9 4.65625 -8.875 L 4.359375 -8.203125 C 4.097656 -8.421875 3.773438 -8.53125 3.390625 -8.53125 Z M 3.390625 -8.53125 "/></g></g></g><g fill="#000000" fill-opacity="1"><g transform="translate(93.173386, 44.800022)"><g><path d="M 6.921875 -3 L 1.453125 -3 C 1.503906 -2.3125 1.765625 -1.757812 2.234375 -1.34375 C 2.703125 -0.925781 3.300781 -0.71875 4.03125 -0.71875 C 4.4375 -0.71875 4.804688 -0.789062 5.140625 -0.9375 C 5.484375 -1.082031 5.78125 -1.296875 6.03125 -1.578125 L 6.515625 -1 C 6.234375 -0.65625 5.875 -0.390625 5.4375 -0.203125 C 5 -0.0234375 4.519531 0.0625 4 0.0625 C 3.332031 0.0625 2.738281 -0.078125 2.21875 -0.359375 C 1.695312 -0.648438 1.289062 -1.046875 1 -1.546875 C 0.71875 -2.054688 0.578125 -2.628906 0.578125 -3.265625 C 0.578125 -3.898438 0.710938 -4.46875 0.984375 -4.96875 C 1.265625 -5.476562 1.644531 -5.875 2.125 -6.15625 C 2.613281 -6.4375 3.160156 -6.578125 3.765625 -6.578125 C 4.367188 -6.578125 4.910156 -6.4375 5.390625 -6.15625 C 5.867188 -5.875 6.242188 -5.484375 6.515625 -4.984375 C 6.796875 -4.484375 6.9375 -3.910156 6.9375 -3.265625 Z M 3.765625 -5.828125 C 3.128906 -5.828125 2.597656 -5.625 2.171875 -5.21875 C 1.753906 -4.820312 1.515625 -4.300781 1.453125 -3.65625 L 6.09375 -3.65625 C 6.03125 -4.300781 5.785156 -4.820312 5.359375 -5.21875 C 4.929688 -5.625 4.398438 -5.828125 3.765625 -5.828125 Z M 3.765625 -5.828125 "/></g></g></g><g fill="#000000" fill-opacity="1"><g transform="translate(100.675217, 44.800022)"><g><path d="M 9.375 -6.578125 C 10.195312 -6.578125 10.84375 -6.34375 11.3125 -5.875 C 11.78125 -5.40625 12.015625 -4.707031 12.015625 -3.78125 L 12.015625 0 L 11.125 0 L 11.125 -3.703125 C 11.125 -4.378906 10.960938 -4.894531 10.640625 -5.25 C 10.316406 -5.601562 9.851562 -5.78125 9.25 -5.78125 C 8.570312 -5.78125 8.035156 -5.570312 7.640625 -5.15625 C 7.253906 -4.738281 7.0625 -4.160156 7.0625 -3.421875 L 7.0625 0 L 6.1875 0 L 6.1875 -3.703125 C 6.1875 -4.378906 6.019531 -4.894531 5.6875 -5.25 C 5.363281 -5.601562 4.898438 -5.78125 4.296875 -5.78125 C 3.628906 -5.78125 3.097656 -5.570312 2.703125 -5.15625 C 2.304688 -4.738281 2.109375 -4.160156 2.109375 -3.421875 L 2.109375 0 L 1.234375 0 L 1.234375 -6.53125 L 2.078125 -6.53125 L 2.078125 -5.34375 C 2.304688 -5.738281 2.628906 -6.039062 3.046875 -6.25 C 3.460938 -6.46875 3.9375 -6.578125 4.46875 -6.578125 C 5.019531 -6.578125 5.492188 -6.460938 5.890625 -6.234375 C 6.296875 -6.003906 6.597656 -5.660156 6.796875 -5.203125 C 7.035156 -5.628906 7.378906 -5.960938 7.828125 -6.203125 C 8.285156 -6.453125 8.800781 -6.578125 9.375 -6.578125 Z M 9.375 -6.578125 "/></g></g></g><g fill="#000000" fill-opacity="1"><g transform="translate(113.853107, 44.800022)"><g><path d="M 1.234375 -6.53125 L 2.109375 -6.53125 L 2.109375 0 L 1.234375 0 Z M 1.6875 -7.96875 C 1.5 -7.96875 1.34375 -8.023438 1.21875 -8.140625 C 1.09375 -8.265625 1.03125 -8.414062 1.03125 -8.59375 C 1.03125 -8.757812 1.09375 -8.90625 1.21875 -9.03125 C 1.34375 -9.15625 1.5 -9.21875 1.6875 -9.21875 C 1.863281 -9.21875 2.015625 -9.15625 2.140625 -9.03125 C 2.265625 -8.914062 2.328125 -8.773438 2.328125 -8.609375 C 2.328125 -8.421875 2.265625 -8.265625 2.140625 -8.140625 C 2.015625 -8.023438 1.863281 -7.96875 1.6875 -7.96875 Z M 1.6875 -7.96875 "/></g></g></g><g fill="#000000" fill-opacity="1"><g transform="translate(117.194162, 44.800022)"><g><path d="M 3.9375 0.0625 C 3.289062 0.0625 2.710938 -0.078125 2.203125 -0.359375 C 1.691406 -0.640625 1.289062 -1.035156 1 -1.546875 C 0.71875 -2.054688 0.578125 -2.628906 0.578125 -3.265625 C 0.578125 -3.898438 0.71875 -4.46875 1 -4.96875 C 1.289062 -5.476562 1.691406 -5.875 2.203125 -6.15625 C 2.710938 -6.4375 3.289062 -6.578125 3.9375 -6.578125 C 4.5 -6.578125 5 -6.46875 5.4375 -6.25 C 5.882812 -6.03125 6.238281 -5.710938 6.5 -5.296875 L 5.84375 -4.84375 C 5.625 -5.164062 5.347656 -5.40625 5.015625 -5.5625 C 4.679688 -5.726562 4.320312 -5.8125 3.9375 -5.8125 C 3.46875 -5.8125 3.039062 -5.707031 2.65625 -5.5 C 2.28125 -5.289062 1.988281 -4.988281 1.78125 -4.59375 C 1.570312 -4.207031 1.46875 -3.765625 1.46875 -3.265625 C 1.46875 -2.765625 1.570312 -2.320312 1.78125 -1.9375 C 1.988281 -1.550781 2.28125 -1.25 2.65625 -1.03125 C 3.039062 -0.820312 3.46875 -0.71875 3.9375 -0.71875 C 4.320312 -0.71875 4.679688 -0.796875 5.015625 -0.953125 C 5.347656 -1.109375 5.625 -1.347656 5.84375 -1.671875 L 6.5 -1.234375 C 6.238281 -0.804688 5.882812 -0.484375 5.4375 -0.265625 C 4.988281 -0.046875 4.488281 0.0625 3.9375 0.0625 Z M 3.9375 0.0625 "/></g></g></g><g fill="#000000" fill-opacity="1"><g transform="translate(124.186761, 44.800022)"><g><path d="M 1.234375 -6.53125 L 2.109375 -6.53125 L 2.109375 0 L 1.234375 0 Z M 1.6875 -7.96875 C 1.5 -7.96875 1.34375 -8.023438 1.21875 -8.140625 C 1.09375 -8.265625 1.03125 -8.414062 1.03125 -8.59375 C 1.03125 -8.757812 1.09375 -8.90625 1.21875 -9.03125 C 1.34375 -9.15625 1.5 -9.21875 1.6875 -9.21875 C 1.863281 -9.21875 2.015625 -9.15625 2.140625 -9.03125 C 2.265625 -8.914062 2.328125 -8.773438 2.328125 -8.609375 C 2.328125 -8.421875 2.265625 -8.265625 2.140625 -8.140625 C 2.015625 -8.023438 1.863281 -7.96875 1.6875 -7.96875 Z M 1.6875 -7.96875 "/></g></g></g><g fill="#000000" fill-opacity="1"><g transform="translate(127.527815, 44.800022)"><g><path d="M 7.1875 -9.21875 L 7.1875 0 L 6.34375 0 L 6.34375 -1.296875 C 6.082031 -0.859375 5.734375 -0.519531 5.296875 -0.28125 C 4.859375 -0.0507812 4.367188 0.0625 3.828125 0.0625 C 3.210938 0.0625 2.65625 -0.078125 2.15625 -0.359375 C 1.664062 -0.640625 1.28125 -1.03125 1 -1.53125 C 0.71875 -2.039062 0.578125 -2.617188 0.578125 -3.265625 C 0.578125 -3.910156 0.71875 -4.484375 1 -4.984375 C 1.28125 -5.492188 1.664062 -5.882812 2.15625 -6.15625 C 2.65625 -6.4375 3.210938 -6.578125 3.828125 -6.578125 C 4.359375 -6.578125 4.835938 -6.46875 5.265625 -6.25 C 5.691406 -6.03125 6.039062 -5.710938 6.3125 -5.296875 L 6.3125 -9.21875 Z M 3.90625 -0.71875 C 4.351562 -0.71875 4.757812 -0.820312 5.125 -1.03125 C 5.5 -1.25 5.789062 -1.550781 6 -1.9375 C 6.21875 -2.320312 6.328125 -2.765625 6.328125 -3.265625 C 6.328125 -3.765625 6.21875 -4.207031 6 -4.59375 C 5.789062 -4.988281 5.5 -5.289062 5.125 -5.5 C 4.757812 -5.707031 4.351562 -5.8125 3.90625 -5.8125 C 3.4375 -5.8125 3.015625 -5.707031 2.640625 -5.5 C 2.273438 -5.289062 1.988281 -4.988281 1.78125 -4.59375 C 1.570312 -4.207031 1.46875 -3.765625 1.46875 -3.265625 C 1.46875 -2.765625 1.570312 -2.320312 1.78125 -1.9375 C 1.988281 -1.550781 2.273438 -1.25 2.640625 -1.03125 C 3.015625 -0.820312 3.4375 -0.71875 3.90625 -0.71875 Z M 3.90625 -0.71875 "/></g></g></g><g fill="#000000" fill-opacity="1"><g transform="translate(135.948756, 44.800022)"><g><path d="M 6.921875 -3 L 1.453125 -3 C 1.503906 -2.3125 1.765625 -1.757812 2.234375 -1.34375 C 2.703125 -0.925781 3.300781 -0.71875 4.03125 -0.71875 C 4.4375 -0.71875 4.804688 -0.789062 5.140625 -0.9375 C 5.484375 -1.082031 5.78125 -1.296875 6.03125 -1.578125 L 6.515625 -1 C 6.234375 -0.65625 5.875 -0.390625 5.4375 -0.203125 C 5 -0.0234375 4.519531 0.0625 4 0.0625 C 3.332031 0.0625 2.738281 -0.078125 2.21875 -0.359375 C 1.695312 -0.648438 1.289062 -1.046875 1 -1.546875 C 0.71875 -2.054688 0.578125 -2.628906 0.578125 -3.265625 C 0.578125 -3.898438 0.710938 -4.46875 0.984375 -4.96875 C 1.265625 -5.476562 1.644531 -5.875 2.125 -6.15625 C 2.613281 -6.4375 3.160156 -6.578125 3.765625 -6.578125 C 4.367188 -6.578125 4.910156 -6.4375 5.390625 -6.15625 C 5.867188 -5.875 6.242188 -5.484375 6.515625 -4.984375 C 6.796875 -4.484375 6.9375 -3.910156 6.9375 -3.265625 Z M 3.765625 -5.828125 C 3.128906 -5.828125 2.597656 -5.625 2.171875 -5.21875 C 1.753906 -4.820312 1.515625 -4.300781 1.453125 -3.65625 L 6.09375 -3.65625 C 6.03125 -4.300781 5.785156 -4.820312 5.359375 -5.21875 C 4.929688 -5.625 4.398438 -5.828125 3.765625 -5.828125 Z M 3.765625 -5.828125 "/></g></g></g><g fill="#000000" fill-opacity="1"><g transform="translate(143.450587, 44.800022)"><g/></g></g><g fill="#000000" fill-opacity="1"><g transform="translate(146.7047, 44.800022)"><g><path d="M 3.515625 -6.578125 C 4.367188 -6.578125 5.019531 -6.363281 5.46875 -5.9375 C 5.925781 -5.507812 6.15625 -4.878906 6.15625 -4.046875 L 6.15625 0 L 5.3125 0 L 5.3125 -1.015625 C 5.113281 -0.679688 4.820312 -0.414062 4.4375 -0.21875 C 4.050781 -0.03125 3.59375 0.0625 3.0625 0.0625 C 2.332031 0.0625 1.753906 -0.109375 1.328125 -0.453125 C 0.898438 -0.804688 0.6875 -1.269531 0.6875 -1.84375 C 0.6875 -2.394531 0.882812 -2.835938 1.28125 -3.171875 C 1.6875 -3.515625 2.328125 -3.6875 3.203125 -3.6875 L 5.28125 -3.6875 L 5.28125 -4.09375 C 5.28125 -4.65625 5.117188 -5.082031 4.796875 -5.375 C 4.484375 -5.664062 4.023438 -5.8125 3.421875 -5.8125 C 3.015625 -5.8125 2.617188 -5.742188 2.234375 -5.609375 C 1.859375 -5.472656 1.53125 -5.285156 1.25 -5.046875 L 0.859375 -5.703125 C 1.191406 -5.984375 1.585938 -6.195312 2.046875 -6.34375 C 2.515625 -6.5 3.003906 -6.578125 3.515625 -6.578125 Z M 3.203125 -0.640625 C 3.703125 -0.640625 4.128906 -0.75 4.484375 -0.96875 C 4.835938 -1.195312 5.101562 -1.53125 5.28125 -1.96875 L 5.28125 -3.03125 L 3.234375 -3.03125 C 2.109375 -3.03125 1.546875 -2.640625 1.546875 -1.859375 C 1.546875 -1.484375 1.691406 -1.1875 1.984375 -0.96875 C 2.273438 -0.75 2.679688 -0.640625 3.203125 -0.640625 Z M 3.203125 -0.640625 "/></g></g></g><g fill="#000000" fill-opacity="1"><g transform="translate(154.03265, 44.800022)"><g><path d="M 4.59375 -6.578125 C 5.207031 -6.578125 5.757812 -6.4375 6.25 -6.15625 C 6.75 -5.882812 7.140625 -5.492188 7.421875 -4.984375 C 7.703125 -4.484375 7.84375 -3.910156 7.84375 -3.265625 C 7.84375 -2.609375 7.703125 -2.023438 7.421875 -1.515625 C 7.140625 -1.015625 6.753906 -0.625 6.265625 -0.34375 C 5.773438 -0.0703125 5.21875 0.0625 4.59375 0.0625 C 4.0625 0.0625 3.582031 -0.046875 3.15625 -0.265625 C 2.726562 -0.484375 2.378906 -0.804688 2.109375 -1.234375 L 2.109375 2.40625 L 1.234375 2.40625 L 1.234375 -6.53125 L 2.078125 -6.53125 L 2.078125 -5.234375 C 2.335938 -5.671875 2.6875 -6.003906 3.125 -6.234375 C 3.5625 -6.460938 4.050781 -6.578125 4.59375 -6.578125 Z M 4.53125 -0.71875 C 4.988281 -0.71875 5.398438 -0.820312 5.765625 -1.03125 C 6.140625 -1.25 6.429688 -1.550781 6.640625 -1.9375 C 6.859375 -2.320312 6.96875 -2.765625 6.96875 -3.265625 C 6.96875 -3.765625 6.859375 -4.207031 6.640625 -4.59375 C 6.429688 -4.976562 6.140625 -5.273438 5.765625 -5.484375 C 5.398438 -5.703125 4.988281 -5.8125 4.53125 -5.8125 C 4.070312 -5.8125 3.65625 -5.703125 3.28125 -5.484375 C 2.914062 -5.273438 2.625 -4.976562 2.40625 -4.59375 C 2.195312 -4.207031 2.09375 -3.765625 2.09375 -3.265625 C 2.09375 -2.765625 2.195312 -2.320312 2.40625 -1.9375 C 2.625 -1.550781 2.914062 -1.25 3.28125 -1.03125 C 3.65625 -0.820312 4.070312 -0.71875 4.53125 -0.71875 Z M 4.53125 -0.71875 "/></g></g></g><g fill="#000000" fill-opacity="1"><g transform="translate(162.45359, 44.800022)"><g><path d="M 4.59375 -6.578125 C 5.207031 -6.578125 5.757812 -6.4375 6.25 -6.15625 C 6.75 -5.882812 7.140625 -5.492188 7.421875 -4.984375 C 7.703125 -4.484375 7.84375 -3.910156 7.84375 -3.265625 C 7.84375 -2.609375 7.703125 -2.023438 7.421875 -1.515625 C 7.140625 -1.015625 6.753906 -0.625 6.265625 -0.34375 C 5.773438 -0.0703125 5.21875 0.0625 4.59375 0.0625 C 4.0625 0.0625 3.582031 -0.046875 3.15625 -0.265625 C 2.726562 -0.484375 2.378906 -0.804688 2.109375 -1.234375 L 2.109375 2.40625 L 1.234375 2.40625 L 1.234375 -6.53125 L 2.078125 -6.53125 L 2.078125 -5.234375 C 2.335938 -5.671875 2.6875 -6.003906 3.125 -6.234375 C 3.5625 -6.460938 4.050781 -6.578125 4.59375 -6.578125 Z M 4.53125 -0.71875 C 4.988281 -0.71875 5.398438 -0.820312 5.765625 -1.03125 C 6.140625 -1.25 6.429688 -1.550781 6.640625 -1.9375 C 6.859375 -2.320312 6.96875 -2.765625 6.96875 -3.265625 C 6.96875 -3.765625 6.859375 -4.207031 6.640625 -4.59375 C 6.429688 -4.976562 6.140625 -5.273438 5.765625 -5.484375 C 5.398438 -5.703125 4.988281 -5.8125 4.53125 -5.8125 C 4.070312 -5.8125 3.65625 -5.703125 3.28125 -5.484375 C 2.914062 -5.273438 2.625 -4.976562 2.40625 -4.59375 C 2.195312 -4.207031 2.09375 -3.765625 2.09375 -3.265625 C 2.09375 -2.765625 2.195312 -2.320312 2.40625 -1.9375 C 2.625 -1.550781 2.914062 -1.25 3.28125 -1.03125 C 3.65625 -0.820312 4.070312 -0.71875 4.53125 -0.71875 Z M 4.53125 -0.71875 "/></g></g></g></svg>